M48
; DRILL file {KiCad (6.0.0-rc1-314-g10be483430)} date Thursday, 09 December 2021 at 06:24:34 pm
; FORMAT={-:-/ absolute / metric / decimal}
; #@! TF.CreationDate,2021-12-09T18:24:34+11:00
; #@! TF.GenerationSoftware,Kicad,Pcbnew,(6.0.0-rc1-314-g10be483430)
; #@! TF.FileFunction,Plated,1,2,PTH
FMAT,2
METRIC
; #@! TA.AperFunction,Plated,PTH,ViaDrill
T1C0.400
; #@! TA.AperFunction,Plated,PTH,ComponentDrill
T2C0.400
; #@! TA.AperFunction,Plated,PTH,ComponentDrill
T3C0.700
%
G90
G05
T1
X180.9Y-33.5
X181.45Y-43.45
X181.6Y-38.2
X182.0Y-31.2
X182.0Y-44.0
X182.938Y-41.2
X183.7Y-43.8
X183.8Y-33.721
X183.802Y-31.807
X185.2Y-43.379
X185.5Y-36.62
X185.5Y-49.9
X185.8Y-45.5
X186.0Y-29.6
X186.098Y-43.316
X186.445Y-42.255
X186.49Y-38.01
X187.4Y-48.7
X188.1Y-35.2
X189.0Y-31.3
X189.0Y-38.3
X189.0Y-36.2
X189.1Y-34.9
X189.2Y-33.2
X189.9Y-42.1
X190.001Y-34.001
X190.313Y-36.564
X191.5Y-42.1
X191.5Y-51.8
X192.4Y-45.3
X192.4Y-47.8
X192.4Y-49.9
X193.3Y-37.7
X193.3Y-44.5
X193.6Y-49.8
X194.6Y-39.5
X195.385Y-32.851
X196.2Y-34.4
X197.2Y-32.4
X197.303Y-33.12
X199.6Y-46.0
X200.75Y-35.5
X200.9Y-42.5
X205.25Y-38.0
T2
X209.3Y-36.75
X209.3Y-37.7
X209.3Y-39.55
X209.3Y-40.45
X209.3Y-41.35
X209.3Y-42.3
X209.3Y-43.25
X210.7Y-36.75
X210.7Y-37.7
X210.7Y-38.65
X210.7Y-39.55
X210.7Y-40.45
X210.7Y-42.3
X210.7Y-43.25
T3
G00X208.07Y-38.525
M15
G01X208.07Y-37.475
M16
G05
G00X208.07Y-42.525
M15
G01X208.07Y-41.475
M16
G05
G00X211.93Y-38.525
M15
G01X211.93Y-37.475
M16
G05
G00X211.93Y-42.525
M15
G01X211.93Y-41.475
M16
G05
T0
M30
