%TF.GenerationSoftware,KiCad,Pcbnew,(6.0.0-rc1-314-g10be483430)*%
%TF.CreationDate,2021-12-09T18:24:32+11:00*%
%TF.ProjectId,project_llama,70726f6a-6563-4745-9f6c-6c616d612e6b,rev?*%
%TF.SameCoordinates,Original*%
%TF.FileFunction,Copper,L1,Top*%
%TF.FilePolarity,Positive*%
%FSLAX46Y46*%
G04 Gerber Fmt 4.6, Leading zero omitted, Abs format (unit mm)*
G04 Created by KiCad (PCBNEW (6.0.0-rc1-314-g10be483430)) date 2021-12-09 18:24:32*
%MOMM*%
%LPD*%
G01*
G04 APERTURE LIST*
G04 Aperture macros list*
%AMRoundRect*
0 Rectangle with rounded corners*
0 $1 Rounding radius*
0 $2 $3 $4 $5 $6 $7 $8 $9 X,Y pos of 4 corners*
0 Add a 4 corners polygon primitive as box body*
4,1,4,$2,$3,$4,$5,$6,$7,$8,$9,$2,$3,0*
0 Add four circle primitives for the rounded corners*
1,1,$1+$1,$2,$3*
1,1,$1+$1,$4,$5*
1,1,$1+$1,$6,$7*
1,1,$1+$1,$8,$9*
0 Add four rect primitives between the rounded corners*
20,1,$1+$1,$2,$3,$4,$5,0*
20,1,$1+$1,$4,$5,$6,$7,0*
20,1,$1+$1,$6,$7,$8,$9,0*
20,1,$1+$1,$8,$9,$2,$3,0*%
%AMFreePoly0*
4,1,85,0.032093,0.369917,0.152523,0.368341,0.408529,0.326647,0.655562,0.247572,0.888192,0.132851,1.101311,-0.014995,1.290235,-0.192717,1.450816,-0.396412,1.579524,-0.621606,1.673533,-0.863350,1.730778,-1.116334,1.750000,-1.375000,1.747602,-1.466588,1.714868,-1.723894,1.644462,-1.973535,1.537930,-2.210028,1.397612,-2.428176,1.226591,-2.623188,1.028624,-2.790780,0.808060,-2.927269,
0.569744,-3.029658,0.318912,-3.095696,0.061074,-3.123934,-0.198106,-3.113751,-0.452933,-3.065370,-0.697811,-2.979855,-0.927359,-2.859084,-1.136534,-2.705710,-1.320742,-2.523103,-1.475935,-2.315274,-1.598705,-2.086789,-1.686353,-1.842667,-1.736956,-1.588271,-1.747874,-1.360970,-1.004741,-1.360970,-0.988331,-1.556393,-0.934276,-1.744906,-0.844634,-1.919330,-0.722821,-2.073020,-0.573475,-2.200123,
-0.402286,-2.295797,-0.215774,-2.356398,-0.021044,-2.379619,0.174488,-2.364573,0.363374,-2.311835,0.538420,-2.223414,0.692957,-2.102676,0.821099,-1.954222,0.917966,-1.783705,0.979868,-1.597621,1.004447,-1.403057,1.004839,-1.375000,0.985702,-1.179826,0.929020,-0.992086,0.836952,-0.818931,0.713004,-0.666956,0.561899,-0.541951,0.389391,-0.448676,0.202051,-0.390685,0.021074,-0.371662,
0.000000,-0.375000,-0.016747,-0.372348,-0.188288,-0.387959,-0.376419,-0.443330,-0.550213,-0.534187,-0.703049,-0.657070,-0.829106,-0.807299,-0.923583,-0.979152,-0.982881,-1.166082,-1.004741,-1.360970,-1.747874,-1.360970,-1.749400,-1.329190,-1.723414,-1.071116,-1.659566,-0.819717,-1.559261,-0.580517,-1.424702,-0.358770,-1.258845,-0.159348,-1.065333,0.013368,-0.848417,0.155584,-0.612863,0.264176,
-0.363845,0.336758,-0.106835,0.371736,-0.027193,0.370693,0.000000,0.375000,0.032093,0.369917,0.032093,0.369917,$1*%
G04 Aperture macros list end*
%TA.AperFunction,SMDPad,CuDef*%
%ADD10RoundRect,0.225000X-0.225000X-0.250000X0.225000X-0.250000X0.225000X0.250000X-0.225000X0.250000X0*%
%TD*%
%TA.AperFunction,SMDPad,CuDef*%
%ADD11RoundRect,0.225000X0.225000X0.250000X-0.225000X0.250000X-0.225000X-0.250000X0.225000X-0.250000X0*%
%TD*%
%TA.AperFunction,SMDPad,CuDef*%
%ADD12RoundRect,0.225000X-0.250000X0.225000X-0.250000X-0.225000X0.250000X-0.225000X0.250000X0.225000X0*%
%TD*%
%TA.AperFunction,SMDPad,CuDef*%
%ADD13RoundRect,0.225000X0.250000X-0.225000X0.250000X0.225000X-0.250000X0.225000X-0.250000X-0.225000X0*%
%TD*%
%TA.AperFunction,SMDPad,CuDef*%
%ADD14R,1.500000X1.000000*%
%TD*%
%TA.AperFunction,ConnectorPad*%
%ADD15C,0.787400*%
%TD*%
%TA.AperFunction,SMDPad,CuDef*%
%ADD16R,0.400000X0.550000*%
%TD*%
%TA.AperFunction,SMDPad,CuDef*%
%ADD17R,0.800000X0.900000*%
%TD*%
%TA.AperFunction,SMDPad,CuDef*%
%ADD18RoundRect,0.200000X-0.200000X-0.275000X0.200000X-0.275000X0.200000X0.275000X-0.200000X0.275000X0*%
%TD*%
%TA.AperFunction,SMDPad,CuDef*%
%ADD19RoundRect,0.200000X-0.275000X0.200000X-0.275000X-0.200000X0.275000X-0.200000X0.275000X0.200000X0*%
%TD*%
%TA.AperFunction,SMDPad,CuDef*%
%ADD20RoundRect,0.200000X0.200000X0.275000X-0.200000X0.275000X-0.200000X-0.275000X0.200000X-0.275000X0*%
%TD*%
%TA.AperFunction,SMDPad,CuDef*%
%ADD21RoundRect,0.200000X0.275000X-0.200000X0.275000X0.200000X-0.275000X0.200000X-0.275000X-0.200000X0*%
%TD*%
%TA.AperFunction,SMDPad,CuDef*%
%ADD22RoundRect,0.150000X-0.825000X-0.150000X0.825000X-0.150000X0.825000X0.150000X-0.825000X0.150000X0*%
%TD*%
%TA.AperFunction,SMDPad,CuDef*%
%ADD23RoundRect,0.150000X-0.675000X-0.150000X0.675000X-0.150000X0.675000X0.150000X-0.675000X0.150000X0*%
%TD*%
%TA.AperFunction,SMDPad,CuDef*%
%ADD24R,1.800000X1.000000*%
%TD*%
%TA.AperFunction,ComponentPad*%
%ADD25C,0.700000*%
%TD*%
%TA.AperFunction,ComponentPad*%
%ADD26O,1.000000X2.050000*%
%TD*%
%TA.AperFunction,SMDPad,CuDef*%
%ADD27RoundRect,0.200000X-0.200000X-0.800000X0.200000X-0.800000X0.200000X0.800000X-0.200000X0.800000X0*%
%TD*%
%TA.AperFunction,SMDPad,CuDef*%
%ADD28C,1.250000*%
%TD*%
%TA.AperFunction,SMDPad,CuDef*%
%ADD29FreePoly0,0.000000*%
%TD*%
%TA.AperFunction,SMDPad,CuDef*%
%ADD30C,1.000000*%
%TD*%
%TA.AperFunction,ViaPad*%
%ADD31C,0.600000*%
%TD*%
%TA.AperFunction,ViaPad*%
%ADD32C,0.800000*%
%TD*%
%TA.AperFunction,Conductor*%
%ADD33C,0.150000*%
%TD*%
%TA.AperFunction,Conductor*%
%ADD34C,0.600000*%
%TD*%
%TA.AperFunction,Conductor*%
%ADD35C,0.200000*%
%TD*%
%TA.AperFunction,Conductor*%
%ADD36C,0.187000*%
%TD*%
%TA.AperFunction,Conductor*%
%ADD37C,0.128000*%
%TD*%
G04 APERTURE END LIST*
D10*
%TO.P,C1,1*%
%TO.N,VIN*%
X190425000Y-50900000D03*
%TO.P,C1,2*%
%TO.N,GND*%
X191975000Y-50900000D03*
%TD*%
D11*
%TO.P,C2,1*%
%TO.N,GND*%
X197175000Y-31500000D03*
%TO.P,C2,2*%
%TO.N,+3V3*%
X195625000Y-31500000D03*
%TD*%
D10*
%TO.P,C3,1*%
%TO.N,Net-(C3-Pad1)*%
X190225000Y-29600000D03*
%TO.P,C3,2*%
%TO.N,Net-(C3-Pad2)*%
X191775000Y-29600000D03*
%TD*%
D12*
%TO.P,C4,1*%
%TO.N,GND*%
X198600000Y-46025000D03*
%TO.P,C4,2*%
%TO.N,+3V3*%
X198600000Y-47575000D03*
%TD*%
D10*
%TO.P,C5,1*%
%TO.N,Net-(C5-Pad1)*%
X191725000Y-36800000D03*
%TO.P,C5,2*%
%TO.N,GND*%
X193275000Y-36800000D03*
%TD*%
D11*
%TO.P,C6,1*%
%TO.N,GND*%
X193275000Y-43600000D03*
%TO.P,C6,2*%
%TO.N,Net-(C6-Pad2)*%
X191725000Y-43600000D03*
%TD*%
%TO.P,C7,1*%
%TO.N,+3V3*%
X184675000Y-35600000D03*
%TO.P,C7,2*%
%TO.N,GND*%
X183125000Y-35600000D03*
%TD*%
D13*
%TO.P,C8,1*%
%TO.N,clap_adc*%
X193900000Y-34775000D03*
%TO.P,C8,2*%
%TO.N,Net-(C8-Pad2)*%
X193900000Y-33225000D03*
%TD*%
D14*
%TO.P,D1,1*%
%TO.N,+3V3*%
X183650000Y-45500000D03*
%TO.P,D1,2*%
%TO.N,Net-(D1-Pad2)*%
X183650000Y-48700000D03*
%TO.P,D1,3*%
%TO.N,GND*%
X188550000Y-48700000D03*
%TO.P,D1,4*%
%TO.N,WS2182B*%
X188550000Y-45500000D03*
%TD*%
D15*
%TO.P,J1,1*%
%TO.N,+3V3*%
X197130000Y-40935000D03*
%TO.P,J1,2*%
%TO.N,SWDIO*%
X197130000Y-39665000D03*
%TO.P,J1,3*%
%TO.N,~{Reset}*%
X198400000Y-40935000D03*
%TO.P,J1,4*%
%TO.N,SWCLK*%
X198400000Y-39665000D03*
%TO.P,J1,5*%
%TO.N,GND*%
X199670000Y-40935000D03*
%TO.P,J1,6*%
%TO.N,Net-(J1-Pad6)*%
X199670000Y-39665000D03*
%TD*%
D16*
%TO.P,MD1,1*%
%TO.N,GND*%
X181300000Y-42675000D03*
%TO.P,MD1,2*%
%TO.N,SWCLK*%
X182050000Y-42675000D03*
%TO.P,MD1,3*%
%TO.N,~{Reset}*%
X182425000Y-41900000D03*
%TO.P,MD1,4*%
%TO.N,SWDIO*%
X182800000Y-42675000D03*
%TO.P,MD1,5*%
%TO.N,Net-(MD1-Pad5)*%
X183175000Y-41900000D03*
%TO.P,MD1,6*%
%TO.N,Net-(MD1-Pad6)*%
X183550000Y-42675000D03*
%TO.P,MD1,7*%
%TO.N,Net-(MD1-Pad7)*%
X183925000Y-41900000D03*
%TO.P,MD1,8*%
%TO.N,Net-(MD1-Pad8)*%
X184300000Y-42675000D03*
%TO.P,MD1,9*%
%TO.N,Net-(MD1-Pad9)*%
X185050000Y-42675000D03*
%TO.P,MD1,10*%
%TO.N,GND*%
X186049999Y-42675000D03*
%TO.P,MD1,11*%
%TO.N,Net-(MD1-Pad11)*%
X185465000Y-41900000D03*
%TO.P,MD1,12*%
%TO.N,WS2182B*%
X186050000Y-41424999D03*
%TO.P,MD1,13*%
%TO.N,Net-(MD1-Pad13)*%
X185465000Y-40950000D03*
%TO.P,MD1,14*%
%TO.N,Net-(MD1-Pad14)*%
X186050000Y-40474999D03*
%TO.P,MD1,15*%
%TO.N,Net-(C6-Pad2)*%
X185465000Y-40000000D03*
%TO.P,MD1,16*%
%TO.N,Net-(C5-Pad1)*%
X186050000Y-39524999D03*
%TO.P,MD1,17*%
%TO.N,clap_adc*%
X185465000Y-39050000D03*
%TO.P,MD1,18*%
%TO.N,GND*%
X186050000Y-38574999D03*
%TO.P,MD1,19*%
%TO.N,Net-(MD1-Pad19)*%
X185465000Y-38100000D03*
%TO.P,MD1,20*%
%TO.N,+3V3*%
X186049999Y-37325000D03*
%TO.P,MD1,21*%
%TO.N,Net-(MD1-Pad21)*%
X185050000Y-37325000D03*
%TO.P,MD1,22*%
%TO.N,Net-(MD1-Pad22)*%
X184300000Y-37325000D03*
%TO.P,MD1,23*%
%TO.N,Net-(MD1-Pad23)*%
X183925000Y-38100000D03*
%TO.P,MD1,24*%
%TO.N,Net-(MD1-Pad24)*%
X183550000Y-37325000D03*
%TO.P,MD1,25*%
%TO.N,Net-(MD1-Pad25)*%
X183175000Y-38100000D03*
%TO.P,MD1,26*%
%TO.N,batt_adc*%
X182800000Y-37325000D03*
%TO.P,MD1,27*%
%TO.N,Net-(MD1-Pad27)*%
X182425000Y-38100000D03*
%TO.P,MD1,28*%
%TO.N,Net-(MD1-Pad28)*%
X182050000Y-37325000D03*
%TO.P,MD1,29*%
%TO.N,GND*%
X181300000Y-37325000D03*
%TD*%
D17*
%TO.P,Q1,1*%
%TO.N,GND*%
X187950000Y-43400000D03*
%TO.P,Q1,2*%
%TO.N,batt_adc*%
X189850000Y-43400000D03*
%TO.P,Q1,3*%
%TO.N,+3V3*%
X188900000Y-41400000D03*
%TD*%
D18*
%TO.P,R1,1*%
%TO.N,GND*%
X185175000Y-50800000D03*
%TO.P,R1,2*%
%TO.N,Net-(R1-Pad2)*%
X186825000Y-50800000D03*
%TD*%
D19*
%TO.P,R2,1*%
%TO.N,+3V3*%
X181600000Y-46175000D03*
%TO.P,R2,2*%
%TO.N,WS2182B*%
X181600000Y-47825000D03*
%TD*%
%TO.P,R3,1*%
%TO.N,Net-(C3-Pad2)*%
X193900000Y-29675000D03*
%TO.P,R3,2*%
%TO.N,+3V3*%
X193900000Y-31325000D03*
%TD*%
D20*
%TO.P,R4,1*%
%TO.N,Net-(C3-Pad1)*%
X188525000Y-29600000D03*
%TO.P,R4,2*%
%TO.N,GND*%
X186875000Y-29600000D03*
%TD*%
%TO.P,R5,1*%
%TO.N,Net-(R5-Pad1)*%
X184725000Y-33900000D03*
%TO.P,R5,2*%
%TO.N,Net-(C3-Pad1)*%
X183075000Y-33900000D03*
%TD*%
D21*
%TO.P,R6,1*%
%TO.N,Net-(R6-Pad1)*%
X182900000Y-32425000D03*
%TO.P,R6,2*%
%TO.N,GND*%
X182900000Y-30775000D03*
%TD*%
%TO.P,R7,1*%
%TO.N,Net-(R6-Pad1)*%
X184600000Y-32425000D03*
%TO.P,R7,2*%
%TO.N,Net-(R7-Pad2)*%
X184600000Y-30775000D03*
%TD*%
D18*
%TO.P,R8,1*%
%TO.N,Net-(R8-Pad1)*%
X179975000Y-33900000D03*
%TO.P,R8,2*%
%TO.N,GND*%
X181625000Y-33900000D03*
%TD*%
%TO.P,R9,1*%
%TO.N,Net-(R8-Pad1)*%
X179775000Y-35600000D03*
%TO.P,R9,2*%
%TO.N,Net-(C8-Pad2)*%
X181425000Y-35600000D03*
%TD*%
D22*
%TO.P,U1,1*%
%TO.N,Net-(R7-Pad2)*%
X186725000Y-31295000D03*
%TO.P,U1,2*%
%TO.N,Net-(R6-Pad1)*%
X186725000Y-32565000D03*
%TO.P,U1,3*%
%TO.N,Net-(R5-Pad1)*%
X186725000Y-33835000D03*
%TO.P,U1,4*%
%TO.N,GND*%
X186725000Y-35105000D03*
%TO.P,U1,5*%
%TO.N,Net-(R7-Pad2)*%
X191675000Y-35105000D03*
%TO.P,U1,6*%
%TO.N,Net-(R8-Pad1)*%
X191675000Y-33835000D03*
%TO.P,U1,7*%
%TO.N,Net-(C8-Pad2)*%
X191675000Y-32565000D03*
%TO.P,U1,8*%
%TO.N,+3V3*%
X191675000Y-31295000D03*
%TD*%
D23*
%TO.P,U2,1*%
%TO.N,GND*%
X191175000Y-45295000D03*
%TO.P,U2,2*%
%TO.N,Net-(R1-Pad2)*%
X191175000Y-46565000D03*
%TO.P,U2,3*%
%TO.N,GND*%
X191175000Y-47835000D03*
%TO.P,U2,4*%
%TO.N,VIN*%
X191175000Y-49105000D03*
%TO.P,U2,5*%
%TO.N,+3V3*%
X196425000Y-49105000D03*
%TO.P,U2,6*%
%TO.N,Net-(U2-Pad6)*%
X196425000Y-47835000D03*
%TO.P,U2,7*%
%TO.N,Net-(U2-Pad7)*%
X196425000Y-46565000D03*
%TO.P,U2,8*%
%TO.N,+3V3*%
X196425000Y-45295000D03*
%TD*%
D24*
%TO.P,Y1,1*%
%TO.N,Net-(C5-Pad1)*%
X192800000Y-38850000D03*
%TO.P,Y1,2*%
%TO.N,Net-(C6-Pad2)*%
X192800000Y-41350000D03*
%TD*%
D25*
%TO.P,J2,A1*%
%TO.N,GND*%
X209300000Y-43250000D03*
%TO.P,J2,A4*%
%TO.N,VIN*%
X209300000Y-42300000D03*
%TO.P,J2,A5*%
%TO.N,Net-(J2-PadA5)*%
X209300000Y-41350000D03*
%TO.P,J2,A6*%
%TO.N,Net-(J2-PadA6)*%
X209300000Y-40450000D03*
%TO.P,J2,A7*%
%TO.N,Net-(J2-PadA7)*%
X209300000Y-39550000D03*
%TO.P,J2,A9*%
%TO.N,VIN*%
X209300000Y-37700000D03*
%TO.P,J2,A12*%
%TO.N,GND*%
X209300000Y-36750000D03*
%TO.P,J2,B1*%
X210700000Y-43250000D03*
%TO.P,J2,B4*%
%TO.N,VIN*%
X210700000Y-42300000D03*
%TO.P,J2,B5*%
%TO.N,Net-(J2-PadB5)*%
X210700000Y-38650000D03*
%TO.P,J2,B6*%
%TO.N,Net-(J2-PadB6)*%
X210700000Y-39550000D03*
%TO.P,J2,B7*%
%TO.N,Net-(J2-PadB7)*%
X210700000Y-40450000D03*
%TO.P,J2,B9*%
%TO.N,VIN*%
X210700000Y-37700000D03*
%TO.P,J2,B12*%
%TO.N,GND*%
X210700000Y-36750000D03*
D26*
%TO.P,J2,S1*%
X211930000Y-38000000D03*
X211930000Y-42000000D03*
X208070000Y-38000000D03*
X208070000Y-42000000D03*
%TD*%
D27*
%TO.P,SW1,1*%
%TO.N,GND*%
X195400000Y-34300000D03*
%TO.P,SW1,2*%
%TO.N,~{Reset}*%
X199600000Y-34300000D03*
%TD*%
D28*
%TO.P,TP4,1*%
%TO.N,GND*%
X193700000Y-51100000D03*
%TD*%
%TO.P,TP3,1*%
%TO.N,VIN*%
X188600000Y-51100000D03*
%TD*%
D29*
%TO.P,MK1,1*%
%TO.N,GND*%
X189000000Y-36925000D03*
D30*
%TO.P,MK1,2*%
%TO.N,Net-(C3-Pad2)*%
X189000000Y-38300000D03*
%TD*%
D31*
%TO.N,GND*%
X188100000Y-35200000D03*
X182000000Y-31200000D03*
X192400000Y-49900000D03*
X191500000Y-51800000D03*
X193600000Y-49800000D03*
D32*
X200750000Y-35500000D03*
D31*
X200900000Y-42500000D03*
X186445001Y-42254999D03*
X192400000Y-47800000D03*
X193300000Y-37700000D03*
X187400000Y-48700000D03*
X199600000Y-46000000D03*
X186490303Y-38009697D03*
X185500000Y-49900000D03*
D32*
X205250000Y-38000000D03*
D31*
X192400000Y-45300000D03*
X185800000Y-45500000D03*
X193300000Y-44500000D03*
X196200000Y-34400000D03*
X181600000Y-38200000D03*
X197200000Y-32400000D03*
X189000003Y-36199997D03*
X181450000Y-43450000D03*
X186000000Y-29600000D03*
X180900000Y-33500000D03*
X186097634Y-43315934D03*
%TO.N,SWDIO*%
X191500000Y-42100000D03*
X185200000Y-43379490D03*
%TO.N,SWCLK*%
X194600000Y-39500000D03*
X183700000Y-43800000D03*
%TO.N,~{Reset}*%
X182000000Y-44000000D03*
X182938305Y-41199578D03*
%TO.N,+3V3*%
X197302813Y-33119696D03*
X195385168Y-32851382D03*
X189000000Y-31300000D03*
X189100000Y-34900000D03*
%TO.N,Net-(C3-Pad1)*%
X183802000Y-31807032D03*
X183800000Y-33720500D03*
%TO.N,Net-(C3-Pad2)*%
X189000000Y-38300000D03*
X190313237Y-36564366D03*
%TO.N,batt_adc*%
X185500000Y-36620500D03*
X189900000Y-42100000D03*
%TO.N,Net-(R8-Pad1)*%
X189200000Y-33200000D03*
X190000550Y-34000550D03*
%TD*%
D33*
%TO.N,GND*%
X185175000Y-50800000D02*
X185475000Y-50800000D01*
D34*
X211477001Y-37547001D02*
X211477001Y-37327039D01*
D35*
X210700000Y-43250000D02*
X210700000Y-43230000D01*
D36*
X197200000Y-31525000D02*
X197175000Y-31500000D01*
D33*
X186490303Y-38134696D02*
X186490303Y-38009697D01*
X192400000Y-45300000D02*
X191180000Y-45300000D01*
X182475000Y-31200000D02*
X182900000Y-30775000D01*
D36*
X186049999Y-42675000D02*
X186049999Y-42650001D01*
X192275000Y-51200000D02*
X191975000Y-50900000D01*
X199670000Y-41270000D02*
X200900000Y-42500000D01*
X198600000Y-46025000D02*
X199575000Y-46025000D01*
X199575000Y-46025000D02*
X199600000Y-46000000D01*
X192400000Y-50475000D02*
X191975000Y-50900000D01*
D35*
X209300000Y-43230000D02*
X208070000Y-42000000D01*
D33*
X186049999Y-43268299D02*
X186097634Y-43315934D01*
X193300000Y-36825000D02*
X193275000Y-36800000D01*
D34*
X211072961Y-36922999D02*
X210852999Y-36922999D01*
D33*
X193300000Y-44500000D02*
X193300000Y-43625000D01*
X195500000Y-34400000D02*
X195400000Y-34300000D01*
D36*
X199670000Y-40935000D02*
X199670000Y-41270000D01*
D33*
X189000000Y-36200000D02*
X189000003Y-36199997D01*
D35*
X208070000Y-38000000D02*
X208070000Y-42000000D01*
D34*
X210852999Y-36922999D02*
X210700000Y-36770000D01*
D33*
X185500000Y-49900000D02*
X185500000Y-50475000D01*
D36*
X193700000Y-51200000D02*
X193700000Y-49900000D01*
D33*
X188005000Y-35105000D02*
X188100000Y-35200000D01*
X181300000Y-42675000D02*
X181300000Y-43300000D01*
X193300000Y-37700000D02*
X193300000Y-36825000D01*
X181300000Y-37900000D02*
X181600000Y-38200000D01*
X186000000Y-29600000D02*
X186875000Y-29600000D01*
X186050000Y-38574999D02*
X186490303Y-38134696D01*
D35*
X209300000Y-43250000D02*
X209300000Y-43230000D01*
D34*
X211477001Y-37327039D02*
X211072961Y-36922999D01*
D33*
X186049999Y-42675000D02*
X186049999Y-43268299D01*
D36*
X191500000Y-51375000D02*
X191975000Y-50900000D01*
X191500000Y-51800000D02*
X191500000Y-51375000D01*
D33*
X187400000Y-48700000D02*
X188550000Y-48700000D01*
X191210000Y-47800000D02*
X191175000Y-47835000D01*
D35*
X209300000Y-36750000D02*
X210700000Y-36750000D01*
D33*
X182000000Y-31200000D02*
X182475000Y-31200000D01*
X187950000Y-43400000D02*
X185850000Y-45500000D01*
X181300000Y-43300000D02*
X181450000Y-43450000D01*
D35*
X210700000Y-43230000D02*
X211930000Y-42000000D01*
D33*
X189000000Y-36925000D02*
X189000000Y-36200000D01*
D36*
X181300000Y-37325000D02*
X181300000Y-37071698D01*
X182771698Y-35600000D02*
X183125000Y-35600000D01*
D35*
X208070000Y-37980000D02*
X209300000Y-36750000D01*
D33*
X193300000Y-43625000D02*
X193275000Y-43600000D01*
X186725000Y-35105000D02*
X188005000Y-35105000D01*
X181225000Y-33500000D02*
X180900000Y-33500000D01*
D35*
X208070000Y-38000000D02*
X208070000Y-37980000D01*
D33*
X181300000Y-37325000D02*
X181300000Y-37900000D01*
X185500000Y-50475000D02*
X185175000Y-50800000D01*
D36*
X197200000Y-32400000D02*
X197200000Y-31525000D01*
D33*
X192400000Y-47800000D02*
X191210000Y-47800000D01*
X181625000Y-33900000D02*
X181225000Y-33500000D01*
D36*
X181300000Y-37071698D02*
X182771698Y-35600000D01*
D34*
X211930000Y-38000000D02*
X211477001Y-37547001D01*
D36*
X192400000Y-49900000D02*
X192400000Y-50475000D01*
X193700000Y-49900000D02*
X193600000Y-49800000D01*
X186049999Y-42650001D02*
X186445001Y-42254999D01*
D33*
X196200000Y-34400000D02*
X195500000Y-34400000D01*
D36*
X193700000Y-51200000D02*
X192275000Y-51200000D01*
D33*
X191180000Y-45300000D02*
X191175000Y-45295000D01*
D34*
X210700000Y-36770000D02*
X210700000Y-36750000D01*
D35*
X209300000Y-43250000D02*
X210700000Y-43250000D01*
D33*
X185850000Y-45500000D02*
X185800000Y-45500000D01*
D36*
%TO.N,SWDIO*%
X197049199Y-39584199D02*
X195516415Y-39584199D01*
X194600000Y-41346902D02*
X193846902Y-42100000D01*
X194600000Y-40500614D02*
X194600000Y-40700000D01*
X195516415Y-39584199D02*
X194600000Y-40500614D01*
X194600000Y-40700000D02*
X194600000Y-40900000D01*
X197130000Y-39665000D02*
X197049199Y-39584199D01*
X182800000Y-42675000D02*
X182800000Y-43137000D01*
X194600000Y-40700000D02*
X194600000Y-41346902D01*
X182800000Y-43137000D02*
X182942491Y-43279491D01*
X193846902Y-42100000D02*
X191500000Y-42100000D01*
X185100001Y-43279491D02*
X185200000Y-43379490D01*
X182942491Y-43279491D02*
X185100001Y-43279491D01*
%TO.N,SWCLK*%
X197785799Y-39050799D02*
X196835183Y-39050799D01*
X196615793Y-39270189D02*
X194829811Y-39270189D01*
X198400000Y-39665000D02*
X197785799Y-39050799D01*
X182050000Y-42675000D02*
X182050000Y-43137000D01*
X196835183Y-39050799D02*
X196615793Y-39270189D01*
X182713000Y-43800000D02*
X183700000Y-43800000D01*
X194829811Y-39270189D02*
X194600000Y-39500000D01*
X182050000Y-43137000D02*
X182713000Y-43800000D01*
%TO.N,~{Reset}*%
X197554049Y-43550857D02*
X198324143Y-44320951D01*
X201969812Y-39757652D02*
X201969811Y-38810347D01*
X201969811Y-38810347D02*
X200900000Y-37740536D01*
X200900000Y-37740536D02*
X200900000Y-36850000D01*
D37*
X193064319Y-47051583D02*
X193064319Y-44991001D01*
X180619980Y-45380020D02*
X182000000Y-44000000D01*
D36*
X198324143Y-44320951D02*
X200357431Y-44320951D01*
X201500000Y-43178382D02*
X201500000Y-42300000D01*
D37*
X180619980Y-47872952D02*
X180619980Y-45380020D01*
X186467847Y-47984510D02*
X182468462Y-47984510D01*
X182468462Y-47984510D02*
X182036962Y-48416010D01*
X197642318Y-49596010D02*
X195608746Y-49596010D01*
X200357431Y-46086261D02*
X199266010Y-47177682D01*
X199266010Y-47177682D02*
X199266010Y-47972318D01*
D36*
X201800000Y-39927464D02*
X201969812Y-39757652D01*
D37*
X181163038Y-48416010D02*
X180619980Y-47872952D01*
D36*
X201800000Y-42000000D02*
X201800000Y-39927464D01*
D37*
X192808999Y-44735681D02*
X189602519Y-44735681D01*
D36*
X197554049Y-41780951D02*
X197554049Y-43550857D01*
D37*
X182938305Y-41199578D02*
X182441010Y-41696873D01*
X189491001Y-46152801D02*
X189452801Y-46191001D01*
X189452801Y-46191001D02*
X188261355Y-46191001D01*
X199266010Y-47972318D02*
X197642318Y-49596010D01*
X182036962Y-48416010D02*
X181163038Y-48416010D01*
D36*
X199600000Y-35550000D02*
X199600000Y-34300000D01*
D37*
X188261355Y-46191001D02*
X186467847Y-47984510D01*
D36*
X201500000Y-42300000D02*
X201800000Y-42000000D01*
D37*
X193064319Y-44991001D02*
X192808999Y-44735681D01*
D36*
X200357431Y-44320951D02*
X201500000Y-43178382D01*
X200900000Y-36850000D02*
X199600000Y-35550000D01*
D37*
X189491001Y-44847199D02*
X189491001Y-46152801D01*
X189602519Y-44735681D02*
X189491001Y-44847199D01*
X182441010Y-41696873D02*
X182441010Y-41900000D01*
X200357431Y-44320951D02*
X200357431Y-46086261D01*
X195608746Y-49596010D02*
X193064319Y-47051583D01*
D36*
X198400000Y-40935000D02*
X197554049Y-41780951D01*
D35*
%TO.N,VIN*%
X210122999Y-38522999D02*
X210122999Y-41722999D01*
X209300000Y-37700000D02*
X210700000Y-37700000D01*
X210122999Y-41722999D02*
X210700000Y-42300000D01*
X209300000Y-37700000D02*
X210122999Y-38522999D01*
D36*
X188600000Y-51200000D02*
X190125000Y-51200000D01*
X190425000Y-49855000D02*
X191175000Y-49105000D01*
X190125000Y-51200000D02*
X190425000Y-50900000D01*
X190425000Y-50900000D02*
X190425000Y-49855000D01*
%TO.N,+3V3*%
X192604490Y-43825558D02*
X192604490Y-43165462D01*
X195385168Y-32851382D02*
X195385168Y-31739832D01*
X189000000Y-31300000D02*
X191670000Y-31300000D01*
X194452049Y-44147049D02*
X194452049Y-42752049D01*
X196425000Y-45295000D02*
X196503982Y-45295000D01*
X190665487Y-41920091D02*
X190665487Y-43645535D01*
X188200000Y-44500000D02*
X188900000Y-43800000D01*
X185175000Y-36100000D02*
X184675000Y-35600000D01*
X200442951Y-37084183D02*
X197302813Y-33944045D01*
X191315462Y-44295510D02*
X192134538Y-44295510D01*
X183650000Y-45500000D02*
X184587000Y-45500000D01*
X195287533Y-41328699D02*
X196736301Y-41328699D01*
X185800000Y-36100000D02*
X185175000Y-36100000D01*
X196425000Y-49105000D02*
X197070000Y-49105000D01*
X192134538Y-44295510D02*
X192604490Y-43825558D01*
X187870344Y-44500000D02*
X188200000Y-44500000D01*
X196503982Y-45295000D02*
X198600000Y-47391018D01*
X185274000Y-46187000D02*
X186183344Y-46187000D01*
X197785799Y-40279201D02*
X201004185Y-40279201D01*
X188349841Y-35720501D02*
X189100000Y-34970342D01*
X201655801Y-38940415D02*
X200442951Y-37727565D01*
X195385168Y-31739832D02*
X195625000Y-31500000D01*
X196425000Y-45295000D02*
X195600000Y-45295000D01*
X186049999Y-37325000D02*
X186049999Y-36349999D01*
X200442951Y-37727565D02*
X200442951Y-37084183D01*
X184795501Y-35720501D02*
X188349841Y-35720501D01*
X201004185Y-40279201D02*
X201655801Y-39627585D01*
X195625000Y-31500000D02*
X194075000Y-31500000D01*
X186183344Y-46187000D02*
X187870344Y-44500000D01*
X181600000Y-46175000D02*
X182975000Y-46175000D01*
X193900000Y-31325000D02*
X191705000Y-31325000D01*
X184587000Y-45500000D02*
X185274000Y-46187000D01*
X194452049Y-42752049D02*
X194452049Y-42164183D01*
X190145396Y-41400000D02*
X190665487Y-41920091D01*
X197130000Y-40935000D02*
X197785799Y-40279201D01*
X188900000Y-41400000D02*
X190145396Y-41400000D01*
X197302813Y-33944045D02*
X197302813Y-33119696D01*
X197070000Y-49105000D02*
X198600000Y-47575000D01*
X193017903Y-42752049D02*
X194452049Y-42752049D01*
X201655801Y-39627585D02*
X201655801Y-38940415D01*
X184675000Y-35600000D02*
X184795501Y-35720501D01*
X192604490Y-43165462D02*
X193017903Y-42752049D01*
X198600000Y-47391018D02*
X198600000Y-47575000D01*
X190665487Y-43645535D02*
X191315462Y-44295510D01*
X189100000Y-34970342D02*
X189100000Y-34900000D01*
X186049999Y-36349999D02*
X185800000Y-36100000D01*
X194452049Y-42164183D02*
X195287533Y-41328699D01*
X196736301Y-41328699D02*
X197130000Y-40935000D01*
X194075000Y-31500000D02*
X193900000Y-31325000D01*
X188900000Y-43800000D02*
X188900000Y-41400000D01*
X191670000Y-31300000D02*
X191675000Y-31295000D01*
X182975000Y-46175000D02*
X183650000Y-45500000D01*
X191705000Y-31325000D02*
X191675000Y-31295000D01*
X195600000Y-45295000D02*
X194452049Y-44147049D01*
%TO.N,Net-(C3-Pad1)*%
X183802000Y-31807032D02*
X183802000Y-30503308D01*
X187829490Y-30295510D02*
X188525000Y-29600000D01*
X184150818Y-30154490D02*
X186359798Y-30154490D01*
X186359798Y-30154490D02*
X186500818Y-30295510D01*
X183802000Y-30503308D02*
X184150818Y-30154490D01*
X183620500Y-33900000D02*
X183800000Y-33720500D01*
X188525000Y-29600000D02*
X190225000Y-29600000D01*
X183075000Y-33900000D02*
X183620500Y-33900000D01*
X186500818Y-30295510D02*
X187829490Y-30295510D01*
%TO.N,Net-(C3-Pad2)*%
X196720501Y-33220501D02*
X196295510Y-32795510D01*
X193900000Y-29675000D02*
X191850000Y-29675000D01*
X195265852Y-36104490D02*
X196720501Y-34649841D01*
X196295510Y-31065462D02*
X194905048Y-29675000D01*
X196295510Y-32795510D02*
X196295510Y-31065462D01*
X194905048Y-29675000D02*
X193900000Y-29675000D01*
X191850000Y-29675000D02*
X191775000Y-29600000D01*
X190773113Y-36104490D02*
X195265852Y-36104490D01*
X190313237Y-36564366D02*
X190773113Y-36104490D01*
X196720501Y-34649841D02*
X196720501Y-33220501D01*
D37*
%TO.N,Net-(C5-Pad1)*%
X188199444Y-40239433D02*
X191410567Y-40239433D01*
D36*
X191725000Y-36800000D02*
X191725000Y-37775000D01*
D37*
X187485010Y-39524999D02*
X188199444Y-40239433D01*
X191410567Y-40239433D02*
X192800000Y-38850000D01*
X186050000Y-39524999D02*
X187485010Y-39524999D01*
D36*
X191725000Y-37775000D02*
X192800000Y-38850000D01*
D37*
%TO.N,Net-(C6-Pad2)*%
X187258999Y-40758999D02*
X192208999Y-40758999D01*
D36*
X190979498Y-41850158D02*
X191479656Y-41350000D01*
X190979498Y-42854498D02*
X190979498Y-41850158D01*
D37*
X192208999Y-40758999D02*
X192800000Y-41350000D01*
X186500000Y-40000000D02*
X187258999Y-40758999D01*
X185465000Y-40000000D02*
X186500000Y-40000000D01*
D36*
X191725000Y-43600000D02*
X190979498Y-42854498D01*
X191479656Y-41350000D02*
X192800000Y-41350000D01*
D37*
%TO.N,clap_adc*%
X186450000Y-39050000D02*
X187058990Y-38441010D01*
X187058990Y-37441010D02*
X188800000Y-35700000D01*
X187058990Y-38441010D02*
X187058990Y-37441010D01*
X188800000Y-35700000D02*
X192975000Y-35700000D01*
X192975000Y-35700000D02*
X193900000Y-34775000D01*
X185465000Y-39050000D02*
X186450000Y-39050000D01*
D36*
%TO.N,Net-(C8-Pad2)*%
X182356490Y-34668510D02*
X185559270Y-34668510D01*
X193240000Y-32565000D02*
X193900000Y-33225000D01*
X190700000Y-32565000D02*
X191675000Y-32565000D01*
X185799270Y-34428510D02*
X188836490Y-34428510D01*
X181425000Y-35600000D02*
X182356490Y-34668510D01*
X185559270Y-34668510D02*
X185799270Y-34428510D01*
X191675000Y-32565000D02*
X193240000Y-32565000D01*
X188836490Y-34428510D02*
X190700000Y-32565000D01*
%TO.N,WS2182B*%
X186624999Y-41424999D02*
X187100000Y-41900000D01*
X181600000Y-47825000D02*
X181725000Y-47700000D01*
X185963851Y-44406491D02*
X182463853Y-44406491D01*
X181725000Y-47700000D02*
X186350000Y-47700000D01*
X181300000Y-45200000D02*
X180904491Y-45595509D01*
X182463853Y-44406491D02*
X181670344Y-45200000D01*
X186050000Y-41424999D02*
X186624999Y-41424999D01*
X187100000Y-43270342D02*
X185963851Y-44406491D01*
X186350000Y-47700000D02*
X188550000Y-45500000D01*
X180904491Y-47129491D02*
X181600000Y-47825000D01*
X180904491Y-45595509D02*
X180904491Y-47129491D01*
X187100000Y-41900000D02*
X187100000Y-43270342D01*
X181670344Y-45200000D02*
X181300000Y-45200000D01*
%TO.N,batt_adc*%
X189850000Y-43400000D02*
X189850000Y-42150000D01*
D37*
X183079500Y-36620500D02*
X185500000Y-36620500D01*
X182800000Y-37325000D02*
X182800000Y-36900000D01*
D36*
X189850000Y-42150000D02*
X189900000Y-42100000D01*
D37*
X182800000Y-36900000D02*
X183079500Y-36620500D01*
D36*
%TO.N,Net-(R1-Pad2)*%
X187629658Y-47700000D02*
X188800000Y-47700000D01*
X188800000Y-47700000D02*
X189800000Y-46700000D01*
X186879499Y-50554499D02*
X186879499Y-48450159D01*
X186879499Y-48450159D02*
X187629658Y-47700000D01*
X187125000Y-50800000D02*
X186879499Y-50554499D01*
X191040000Y-46700000D02*
X191175000Y-46565000D01*
X189800000Y-46700000D02*
X191040000Y-46700000D01*
%TO.N,Net-(R5-Pad1)*%
X186660000Y-33900000D02*
X186725000Y-33835000D01*
X184725000Y-33900000D02*
X186660000Y-33900000D01*
%TO.N,Net-(R6-Pad1)*%
X184600000Y-32425000D02*
X182900000Y-32425000D01*
X184740000Y-32565000D02*
X184600000Y-32425000D01*
X186725000Y-32565000D02*
X184740000Y-32565000D01*
%TO.N,Net-(R7-Pad2)*%
X193674442Y-33895510D02*
X194704490Y-33895510D01*
X194704490Y-33895510D02*
X194779490Y-33820510D01*
X193725558Y-31945510D02*
X187375510Y-31945510D01*
X191675000Y-35105000D02*
X192464952Y-35105000D01*
X187375510Y-31945510D02*
X186725000Y-31295000D01*
X192464952Y-35105000D02*
X193674442Y-33895510D01*
X184600000Y-30775000D02*
X186205000Y-30775000D01*
X194779490Y-33820510D02*
X194779490Y-32999442D01*
X194779490Y-32999442D02*
X193725558Y-31945510D01*
X186205000Y-30775000D02*
X186725000Y-31295000D01*
%TO.N,Net-(R8-Pad1)*%
X181370342Y-33200000D02*
X189200000Y-33200000D01*
X180420501Y-32979499D02*
X181149841Y-32979499D01*
X179975000Y-33900000D02*
X179975000Y-33425000D01*
X179975000Y-33425000D02*
X180420501Y-32979499D01*
X179775000Y-34100000D02*
X179975000Y-33900000D01*
X190000550Y-34000550D02*
X191509450Y-34000550D01*
X191509450Y-34000550D02*
X191675000Y-33835000D01*
X181149841Y-32979499D02*
X181370342Y-33200000D01*
X179775000Y-35600000D02*
X179775000Y-34100000D01*
%TD*%
M02*
