%TF.GenerationSoftware,KiCad,Pcbnew,(6.0.0-rc1-314-g10be483430)*%
%TF.CreationDate,2021-12-09T18:24:32+11:00*%
%TF.ProjectId,project_llama,70726f6a-6563-4745-9f6c-6c616d612e6b,rev?*%
%TF.SameCoordinates,Original*%
%TF.FileFunction,Legend,Top*%
%TF.FilePolarity,Positive*%
%FSLAX46Y46*%
G04 Gerber Fmt 4.6, Leading zero omitted, Abs format (unit mm)*
G04 Created by KiCad (PCBNEW (6.0.0-rc1-314-g10be483430)) date 2021-12-09 18:24:32*
%MOMM*%
%LPD*%
G01*
G04 APERTURE LIST*
%ADD10C,0.300000*%
%ADD11C,0.120000*%
%ADD12C,0.150000*%
%ADD13C,0.250000*%
G04 APERTURE END LIST*
D10*
X189028571Y-50107142D02*
X190171428Y-50107142D01*
X189600000Y-50678571D02*
X189600000Y-49535714D01*
X209629761Y-48052083D02*
X210225000Y-48052083D01*
X209510714Y-48409226D02*
X209927380Y-47159226D01*
X210344047Y-48409226D01*
X210939285Y-48409226D02*
X210820238Y-48349702D01*
X210760714Y-48230654D01*
X210760714Y-47159226D01*
X211594047Y-48409226D02*
X211475000Y-48349702D01*
X211415476Y-48230654D01*
X211415476Y-47159226D01*
X212903571Y-47575892D02*
X213201190Y-48409226D01*
X213498809Y-47575892D02*
X213201190Y-48409226D01*
X213082142Y-48706845D01*
X213022619Y-48766369D01*
X212903571Y-48825892D01*
X214153571Y-48409226D02*
X214034523Y-48349702D01*
X213975000Y-48290178D01*
X213915476Y-48171130D01*
X213915476Y-47813988D01*
X213975000Y-47694940D01*
X214034523Y-47635416D01*
X214153571Y-47575892D01*
X214332142Y-47575892D01*
X214451190Y-47635416D01*
X214510714Y-47694940D01*
X214570238Y-47813988D01*
X214570238Y-48171130D01*
X214510714Y-48290178D01*
X214451190Y-48349702D01*
X214332142Y-48409226D01*
X214153571Y-48409226D01*
X215641666Y-47575892D02*
X215641666Y-48409226D01*
X215105952Y-47575892D02*
X215105952Y-48230654D01*
X215165476Y-48349702D01*
X215284523Y-48409226D01*
X215463095Y-48409226D01*
X215582142Y-48349702D01*
X215641666Y-48290178D01*
X217189285Y-47575892D02*
X217189285Y-48409226D01*
X217189285Y-47694940D02*
X217248809Y-47635416D01*
X217367857Y-47575892D01*
X217546428Y-47575892D01*
X217665476Y-47635416D01*
X217725000Y-47754464D01*
X217725000Y-48409226D01*
X218796428Y-48349702D02*
X218677380Y-48409226D01*
X218439285Y-48409226D01*
X218320238Y-48349702D01*
X218260714Y-48230654D01*
X218260714Y-47754464D01*
X218320238Y-47635416D01*
X218439285Y-47575892D01*
X218677380Y-47575892D01*
X218796428Y-47635416D01*
X218855952Y-47754464D01*
X218855952Y-47873511D01*
X218260714Y-47992559D01*
X219867857Y-48349702D02*
X219748809Y-48409226D01*
X219510714Y-48409226D01*
X219391666Y-48349702D01*
X219332142Y-48230654D01*
X219332142Y-47754464D01*
X219391666Y-47635416D01*
X219510714Y-47575892D01*
X219748809Y-47575892D01*
X219867857Y-47635416D01*
X219927380Y-47754464D01*
X219927380Y-47873511D01*
X219332142Y-47992559D01*
X220998809Y-48409226D02*
X220998809Y-47159226D01*
X220998809Y-48349702D02*
X220879761Y-48409226D01*
X220641666Y-48409226D01*
X220522619Y-48349702D01*
X220463095Y-48290178D01*
X220403571Y-48171130D01*
X220403571Y-47813988D01*
X220463095Y-47694940D01*
X220522619Y-47635416D01*
X220641666Y-47575892D01*
X220879761Y-47575892D01*
X220998809Y-47635416D01*
X222367857Y-47575892D02*
X222844047Y-47575892D01*
X222546428Y-47159226D02*
X222546428Y-48230654D01*
X222605952Y-48349702D01*
X222725000Y-48409226D01*
X222844047Y-48409226D01*
X223439285Y-48409226D02*
X223320238Y-48349702D01*
X223260714Y-48290178D01*
X223201190Y-48171130D01*
X223201190Y-47813988D01*
X223260714Y-47694940D01*
X223320238Y-47635416D01*
X223439285Y-47575892D01*
X223617857Y-47575892D01*
X223736904Y-47635416D01*
X223796428Y-47694940D01*
X223855952Y-47813988D01*
X223855952Y-48171130D01*
X223796428Y-48290178D01*
X223736904Y-48349702D01*
X223617857Y-48409226D01*
X223439285Y-48409226D01*
X225879761Y-48409226D02*
X225879761Y-47159226D01*
X225879761Y-48349702D02*
X225760714Y-48409226D01*
X225522619Y-48409226D01*
X225403571Y-48349702D01*
X225344047Y-48290178D01*
X225284523Y-48171130D01*
X225284523Y-47813988D01*
X225344047Y-47694940D01*
X225403571Y-47635416D01*
X225522619Y-47575892D01*
X225760714Y-47575892D01*
X225879761Y-47635416D01*
X226653571Y-48409226D02*
X226534523Y-48349702D01*
X226475000Y-48290178D01*
X226415476Y-48171130D01*
X226415476Y-47813988D01*
X226475000Y-47694940D01*
X226534523Y-47635416D01*
X226653571Y-47575892D01*
X226832142Y-47575892D01*
X226951190Y-47635416D01*
X227010714Y-47694940D01*
X227070238Y-47813988D01*
X227070238Y-48171130D01*
X227010714Y-48290178D01*
X226951190Y-48349702D01*
X226832142Y-48409226D01*
X226653571Y-48409226D01*
X228558333Y-48409226D02*
X228558333Y-47575892D01*
X228558333Y-47159226D02*
X228498809Y-47218750D01*
X228558333Y-47278273D01*
X228617857Y-47218750D01*
X228558333Y-47159226D01*
X228558333Y-47278273D01*
X229094047Y-48349702D02*
X229213095Y-48409226D01*
X229451190Y-48409226D01*
X229570238Y-48349702D01*
X229629761Y-48230654D01*
X229629761Y-48171130D01*
X229570238Y-48052083D01*
X229451190Y-47992559D01*
X229272619Y-47992559D01*
X229153571Y-47933035D01*
X229094047Y-47813988D01*
X229094047Y-47754464D01*
X229153571Y-47635416D01*
X229272619Y-47575892D01*
X229451190Y-47575892D01*
X229570238Y-47635416D01*
X231653571Y-48349702D02*
X231534523Y-48409226D01*
X231296428Y-48409226D01*
X231177380Y-48349702D01*
X231117857Y-48290178D01*
X231058333Y-48171130D01*
X231058333Y-47813988D01*
X231117857Y-47694940D01*
X231177380Y-47635416D01*
X231296428Y-47575892D01*
X231534523Y-47575892D01*
X231653571Y-47635416D01*
X232367857Y-48409226D02*
X232248809Y-48349702D01*
X232189285Y-48230654D01*
X232189285Y-47159226D01*
X233379761Y-48409226D02*
X233379761Y-47754464D01*
X233320238Y-47635416D01*
X233201190Y-47575892D01*
X232963095Y-47575892D01*
X232844047Y-47635416D01*
X233379761Y-48349702D02*
X233260714Y-48409226D01*
X232963095Y-48409226D01*
X232844047Y-48349702D01*
X232784523Y-48230654D01*
X232784523Y-48111607D01*
X232844047Y-47992559D01*
X232963095Y-47933035D01*
X233260714Y-47933035D01*
X233379761Y-47873511D01*
X233974999Y-47575892D02*
X233974999Y-48825892D01*
X233974999Y-47635416D02*
X234094047Y-47575892D01*
X234332142Y-47575892D01*
X234451190Y-47635416D01*
X234510714Y-47694940D01*
X234570238Y-47813988D01*
X234570238Y-48171130D01*
X234510714Y-48290178D01*
X234451190Y-48349702D01*
X234332142Y-48409226D01*
X234094047Y-48409226D01*
X233974999Y-48349702D01*
X208677380Y-49588392D02*
X209153571Y-49588392D01*
X208855952Y-49171726D02*
X208855952Y-50243154D01*
X208915476Y-50362202D01*
X209034523Y-50421726D01*
X209153571Y-50421726D01*
X209748809Y-50421726D02*
X209629761Y-50362202D01*
X209570238Y-50302678D01*
X209510714Y-50183630D01*
X209510714Y-49826488D01*
X209570238Y-49707440D01*
X209629761Y-49647916D01*
X209748809Y-49588392D01*
X209927380Y-49588392D01*
X210046428Y-49647916D01*
X210105952Y-49707440D01*
X210165476Y-49826488D01*
X210165476Y-50183630D01*
X210105952Y-50302678D01*
X210046428Y-50362202D01*
X209927380Y-50421726D01*
X209748809Y-50421726D01*
X211653571Y-50421726D02*
X211653571Y-49588392D01*
X211653571Y-49707440D02*
X211713095Y-49647916D01*
X211832142Y-49588392D01*
X212010714Y-49588392D01*
X212129761Y-49647916D01*
X212189285Y-49766964D01*
X212189285Y-50421726D01*
X212189285Y-49766964D02*
X212248809Y-49647916D01*
X212367857Y-49588392D01*
X212546428Y-49588392D01*
X212665476Y-49647916D01*
X212725000Y-49766964D01*
X212725000Y-50421726D01*
X213855952Y-50421726D02*
X213855952Y-49766964D01*
X213796428Y-49647916D01*
X213677380Y-49588392D01*
X213439285Y-49588392D01*
X213320238Y-49647916D01*
X213855952Y-50362202D02*
X213736904Y-50421726D01*
X213439285Y-50421726D01*
X213320238Y-50362202D01*
X213260714Y-50243154D01*
X213260714Y-50124107D01*
X213320238Y-50005059D01*
X213439285Y-49945535D01*
X213736904Y-49945535D01*
X213855952Y-49886011D01*
X214451190Y-50421726D02*
X214451190Y-49171726D01*
X214570238Y-49945535D02*
X214927380Y-50421726D01*
X214927380Y-49588392D02*
X214451190Y-50064583D01*
X215939285Y-50362202D02*
X215820238Y-50421726D01*
X215582142Y-50421726D01*
X215463095Y-50362202D01*
X215403571Y-50243154D01*
X215403571Y-49766964D01*
X215463095Y-49647916D01*
X215582142Y-49588392D01*
X215820238Y-49588392D01*
X215939285Y-49647916D01*
X215998809Y-49766964D01*
X215998809Y-49886011D01*
X215403571Y-50005059D01*
X219213095Y-49588392D02*
X219689285Y-49588392D01*
X219391666Y-49171726D02*
X219391666Y-50243154D01*
X219451190Y-50362202D01*
X219570238Y-50421726D01*
X219689285Y-50421726D01*
X220105952Y-50421726D02*
X220105952Y-49171726D01*
X220641666Y-50421726D02*
X220641666Y-49766964D01*
X220582142Y-49647916D01*
X220463095Y-49588392D01*
X220284523Y-49588392D01*
X220165476Y-49647916D01*
X220105952Y-49707440D01*
X221713095Y-50362202D02*
X221594047Y-50421726D01*
X221355952Y-50421726D01*
X221236904Y-50362202D01*
X221177380Y-50243154D01*
X221177380Y-49766964D01*
X221236904Y-49647916D01*
X221355952Y-49588392D01*
X221594047Y-49588392D01*
X221713095Y-49647916D01*
X221772619Y-49766964D01*
X221772619Y-49886011D01*
X221177380Y-50005059D01*
X223796428Y-50362202D02*
X223677380Y-50421726D01*
X223439285Y-50421726D01*
X223320238Y-50362202D01*
X223260714Y-50302678D01*
X223201190Y-50183630D01*
X223201190Y-49826488D01*
X223260714Y-49707440D01*
X223320238Y-49647916D01*
X223439285Y-49588392D01*
X223677380Y-49588392D01*
X223796428Y-49647916D01*
X224510714Y-50421726D02*
X224391666Y-50362202D01*
X224332142Y-50302678D01*
X224272619Y-50183630D01*
X224272619Y-49826488D01*
X224332142Y-49707440D01*
X224391666Y-49647916D01*
X224510714Y-49588392D01*
X224689285Y-49588392D01*
X224808333Y-49647916D01*
X224867857Y-49707440D01*
X224927380Y-49826488D01*
X224927380Y-50183630D01*
X224867857Y-50302678D01*
X224808333Y-50362202D01*
X224689285Y-50421726D01*
X224510714Y-50421726D01*
X225641666Y-50421726D02*
X225522619Y-50362202D01*
X225463095Y-50243154D01*
X225463095Y-49171726D01*
X226296428Y-50421726D02*
X226177380Y-50362202D01*
X226117857Y-50302678D01*
X226058333Y-50183630D01*
X226058333Y-49826488D01*
X226117857Y-49707440D01*
X226177380Y-49647916D01*
X226296428Y-49588392D01*
X226475000Y-49588392D01*
X226594047Y-49647916D01*
X226653571Y-49707440D01*
X226713095Y-49826488D01*
X226713095Y-50183630D01*
X226653571Y-50302678D01*
X226594047Y-50362202D01*
X226475000Y-50421726D01*
X226296428Y-50421726D01*
X227784523Y-49588392D02*
X227784523Y-50421726D01*
X227248809Y-49588392D02*
X227248809Y-50243154D01*
X227308333Y-50362202D01*
X227427380Y-50421726D01*
X227605952Y-50421726D01*
X227725000Y-50362202D01*
X227784523Y-50302678D01*
X228379761Y-50421726D02*
X228379761Y-49588392D01*
X228379761Y-49826488D02*
X228439285Y-49707440D01*
X228498809Y-49647916D01*
X228617857Y-49588392D01*
X228736904Y-49588392D01*
X229094047Y-50362202D02*
X229213095Y-50421726D01*
X229451190Y-50421726D01*
X229570238Y-50362202D01*
X229629761Y-50243154D01*
X229629761Y-50183630D01*
X229570238Y-50064583D01*
X229451190Y-50005059D01*
X229272619Y-50005059D01*
X229153571Y-49945535D01*
X229094047Y-49826488D01*
X229094047Y-49766964D01*
X229153571Y-49647916D01*
X229272619Y-49588392D01*
X229451190Y-49588392D01*
X229570238Y-49647916D01*
X231653571Y-50362202D02*
X231534523Y-50421726D01*
X231296428Y-50421726D01*
X231177380Y-50362202D01*
X231117857Y-50302678D01*
X231058333Y-50183630D01*
X231058333Y-49826488D01*
X231117857Y-49707440D01*
X231177380Y-49647916D01*
X231296428Y-49588392D01*
X231534523Y-49588392D01*
X231653571Y-49647916D01*
X232070238Y-49588392D02*
X232367857Y-50421726D01*
X232665476Y-49588392D02*
X232367857Y-50421726D01*
X232248809Y-50719345D01*
X232189285Y-50778869D01*
X232070238Y-50838392D01*
X233677380Y-50362202D02*
X233558333Y-50421726D01*
X233320238Y-50421726D01*
X233201190Y-50362202D01*
X233141666Y-50302678D01*
X233082142Y-50183630D01*
X233082142Y-49826488D01*
X233141666Y-49707440D01*
X233201190Y-49647916D01*
X233320238Y-49588392D01*
X233558333Y-49588392D01*
X233677380Y-49647916D01*
X234391666Y-50421726D02*
X234272619Y-50362202D01*
X234213095Y-50243154D01*
X234213095Y-49171726D01*
X235344047Y-50362202D02*
X235225000Y-50421726D01*
X234986904Y-50421726D01*
X234867857Y-50362202D01*
X234808333Y-50243154D01*
X234808333Y-49766964D01*
X234867857Y-49647916D01*
X234986904Y-49588392D01*
X235225000Y-49588392D01*
X235344047Y-49647916D01*
X235403571Y-49766964D01*
X235403571Y-49886011D01*
X234808333Y-50005059D01*
X211442857Y-30291071D02*
X211442857Y-28791071D01*
X211442857Y-29505357D02*
X212300000Y-29505357D01*
X212300000Y-30291071D02*
X212300000Y-28791071D01*
X213657142Y-30291071D02*
X213657142Y-29505357D01*
X213585714Y-29362500D01*
X213442857Y-29291071D01*
X213157142Y-29291071D01*
X213014285Y-29362500D01*
X213657142Y-30219642D02*
X213514285Y-30291071D01*
X213157142Y-30291071D01*
X213014285Y-30219642D01*
X212942857Y-30076785D01*
X212942857Y-29933928D01*
X213014285Y-29791071D01*
X213157142Y-29719642D01*
X213514285Y-29719642D01*
X213657142Y-29648214D01*
X214371428Y-29291071D02*
X214371428Y-30791071D01*
X214371428Y-29362500D02*
X214514285Y-29291071D01*
X214800000Y-29291071D01*
X214942857Y-29362500D01*
X215014285Y-29433928D01*
X215085714Y-29576785D01*
X215085714Y-30005357D01*
X215014285Y-30148214D01*
X214942857Y-30219642D01*
X214800000Y-30291071D01*
X214514285Y-30291071D01*
X214371428Y-30219642D01*
X215728571Y-29291071D02*
X215728571Y-30791071D01*
X215728571Y-29362500D02*
X215871428Y-29291071D01*
X216157142Y-29291071D01*
X216300000Y-29362500D01*
X216371428Y-29433928D01*
X216442857Y-29576785D01*
X216442857Y-30005357D01*
X216371428Y-30148214D01*
X216300000Y-30219642D01*
X216157142Y-30291071D01*
X215871428Y-30291071D01*
X215728571Y-30219642D01*
X216942857Y-29291071D02*
X217300000Y-30291071D01*
X217657142Y-29291071D02*
X217300000Y-30291071D01*
X217157142Y-30648214D01*
X217085714Y-30719642D01*
X216942857Y-30791071D01*
X220014285Y-29291071D02*
X220014285Y-30291071D01*
X219657142Y-28719642D02*
X219300000Y-29791071D01*
X220228571Y-29791071D01*
X220585714Y-29291071D02*
X221157142Y-29291071D01*
X220800000Y-28791071D02*
X220800000Y-30076785D01*
X220871428Y-30219642D01*
X221014285Y-30291071D01*
X221157142Y-30291071D01*
X221657142Y-30291071D02*
X221657142Y-28791071D01*
X222300000Y-30291071D02*
X222300000Y-29505357D01*
X222228571Y-29362500D01*
X222085714Y-29291071D01*
X221871428Y-29291071D01*
X221728571Y-29362500D01*
X221657142Y-29433928D01*
X224157142Y-30291071D02*
X224157142Y-28791071D01*
X224157142Y-29362500D02*
X224300000Y-29291071D01*
X224585714Y-29291071D01*
X224728571Y-29362500D01*
X224800000Y-29433928D01*
X224871428Y-29576785D01*
X224871428Y-30005357D01*
X224800000Y-30148214D01*
X224728571Y-30219642D01*
X224585714Y-30291071D01*
X224300000Y-30291071D01*
X224157142Y-30219642D01*
X225514285Y-30291071D02*
X225514285Y-29291071D01*
X225514285Y-28791071D02*
X225442857Y-28862500D01*
X225514285Y-28933928D01*
X225585714Y-28862500D01*
X225514285Y-28791071D01*
X225514285Y-28933928D01*
X226228571Y-30291071D02*
X226228571Y-29291071D01*
X226228571Y-29576785D02*
X226300000Y-29433928D01*
X226371428Y-29362500D01*
X226514285Y-29291071D01*
X226657142Y-29291071D01*
X226942857Y-29291071D02*
X227514285Y-29291071D01*
X227157142Y-28791071D02*
X227157142Y-30076785D01*
X227228571Y-30219642D01*
X227371428Y-30291071D01*
X227514285Y-30291071D01*
X228014285Y-30291071D02*
X228014285Y-28791071D01*
X228657142Y-30291071D02*
X228657142Y-29505357D01*
X228585714Y-29362500D01*
X228442857Y-29291071D01*
X228228571Y-29291071D01*
X228085714Y-29362500D01*
X228014285Y-29433928D01*
X230014285Y-30291071D02*
X230014285Y-28791071D01*
X230014285Y-30219642D02*
X229871428Y-30291071D01*
X229585714Y-30291071D01*
X229442857Y-30219642D01*
X229371428Y-30148214D01*
X229300000Y-30005357D01*
X229300000Y-29576785D01*
X229371428Y-29433928D01*
X229442857Y-29362500D01*
X229585714Y-29291071D01*
X229871428Y-29291071D01*
X230014285Y-29362500D01*
X231371428Y-30291071D02*
X231371428Y-29505357D01*
X231300000Y-29362500D01*
X231157142Y-29291071D01*
X230871428Y-29291071D01*
X230728571Y-29362500D01*
X231371428Y-30219642D02*
X231228571Y-30291071D01*
X230871428Y-30291071D01*
X230728571Y-30219642D01*
X230657142Y-30076785D01*
X230657142Y-29933928D01*
X230728571Y-29791071D01*
X230871428Y-29719642D01*
X231228571Y-29719642D01*
X231371428Y-29648214D01*
X231942857Y-29291071D02*
X232300000Y-30291071D01*
X232657142Y-29291071D02*
X232300000Y-30291071D01*
X232157142Y-30648214D01*
X232085714Y-30719642D01*
X231942857Y-30791071D01*
X208371428Y-31920357D02*
X208871428Y-31920357D01*
X209085714Y-32706071D02*
X208371428Y-32706071D01*
X208371428Y-31206071D01*
X209085714Y-31206071D01*
X209942857Y-32706071D02*
X209800000Y-32634642D01*
X209728571Y-32491785D01*
X209728571Y-31206071D01*
X210728571Y-32706071D02*
X210585714Y-32634642D01*
X210514285Y-32563214D01*
X210442857Y-32420357D01*
X210442857Y-31991785D01*
X210514285Y-31848928D01*
X210585714Y-31777500D01*
X210728571Y-31706071D01*
X210942857Y-31706071D01*
X211085714Y-31777500D01*
X211157142Y-31848928D01*
X211228571Y-31991785D01*
X211228571Y-32420357D01*
X211157142Y-32563214D01*
X211085714Y-32634642D01*
X210942857Y-32706071D01*
X210728571Y-32706071D01*
X212514285Y-32706071D02*
X212514285Y-31206071D01*
X212514285Y-32634642D02*
X212371428Y-32706071D01*
X212085714Y-32706071D01*
X211942857Y-32634642D01*
X211871428Y-32563214D01*
X211800000Y-32420357D01*
X211800000Y-31991785D01*
X211871428Y-31848928D01*
X211942857Y-31777500D01*
X212085714Y-31706071D01*
X212371428Y-31706071D01*
X212514285Y-31777500D01*
X213228571Y-32706071D02*
X213228571Y-31706071D01*
X213228571Y-31206071D02*
X213157142Y-31277500D01*
X213228571Y-31348928D01*
X213300000Y-31277500D01*
X213228571Y-31206071D01*
X213228571Y-31348928D01*
X214514285Y-32634642D02*
X214371428Y-32706071D01*
X214085714Y-32706071D01*
X213942857Y-32634642D01*
X213871428Y-32491785D01*
X213871428Y-31920357D01*
X213942857Y-31777500D01*
X214085714Y-31706071D01*
X214371428Y-31706071D01*
X214514285Y-31777500D01*
X214585714Y-31920357D01*
X214585714Y-32063214D01*
X213871428Y-32206071D01*
X215228571Y-32563214D02*
X215300000Y-32634642D01*
X215228571Y-32706071D01*
X215157142Y-32634642D01*
X215228571Y-32563214D01*
X215228571Y-32706071D01*
X215228571Y-32134642D02*
X215157142Y-31277500D01*
X215228571Y-31206071D01*
X215300000Y-31277500D01*
X215228571Y-32134642D01*
X215228571Y-31206071D01*
X217085714Y-32706071D02*
X217085714Y-31206071D01*
X218942857Y-32706071D02*
X218942857Y-31206071D01*
X219585714Y-32706071D02*
X219585714Y-31920357D01*
X219514285Y-31777500D01*
X219371428Y-31706071D01*
X219157142Y-31706071D01*
X219014285Y-31777500D01*
X218942857Y-31848928D01*
X220514285Y-32706071D02*
X220371428Y-32634642D01*
X220300000Y-32563214D01*
X220228571Y-32420357D01*
X220228571Y-31991785D01*
X220300000Y-31848928D01*
X220371428Y-31777500D01*
X220514285Y-31706071D01*
X220728571Y-31706071D01*
X220871428Y-31777500D01*
X220942857Y-31848928D01*
X221014285Y-31991785D01*
X221014285Y-32420357D01*
X220942857Y-32563214D01*
X220871428Y-32634642D01*
X220728571Y-32706071D01*
X220514285Y-32706071D01*
X221657142Y-31706071D02*
X221657142Y-33206071D01*
X221657142Y-31777500D02*
X221800000Y-31706071D01*
X222085714Y-31706071D01*
X222228571Y-31777500D01*
X222300000Y-31848928D01*
X222371428Y-31991785D01*
X222371428Y-32420357D01*
X222300000Y-32563214D01*
X222228571Y-32634642D01*
X222085714Y-32706071D01*
X221800000Y-32706071D01*
X221657142Y-32634642D01*
X223585714Y-32634642D02*
X223442857Y-32706071D01*
X223157142Y-32706071D01*
X223014285Y-32634642D01*
X222942857Y-32491785D01*
X222942857Y-31920357D01*
X223014285Y-31777500D01*
X223157142Y-31706071D01*
X223442857Y-31706071D01*
X223585714Y-31777500D01*
X223657142Y-31920357D01*
X223657142Y-32063214D01*
X222942857Y-32206071D01*
X225299999Y-31706071D02*
X225657142Y-32706071D01*
X226014285Y-31706071D02*
X225657142Y-32706071D01*
X225514285Y-33063214D01*
X225442857Y-33134642D01*
X225299999Y-33206071D01*
X226799999Y-32706071D02*
X226657142Y-32634642D01*
X226585714Y-32563214D01*
X226514285Y-32420357D01*
X226514285Y-31991785D01*
X226585714Y-31848928D01*
X226657142Y-31777500D01*
X226799999Y-31706071D01*
X227014285Y-31706071D01*
X227157142Y-31777500D01*
X227228571Y-31848928D01*
X227299999Y-31991785D01*
X227299999Y-32420357D01*
X227228571Y-32563214D01*
X227157142Y-32634642D01*
X227014285Y-32706071D01*
X226799999Y-32706071D01*
X228585714Y-31706071D02*
X228585714Y-32706071D01*
X227942857Y-31706071D02*
X227942857Y-32491785D01*
X228014285Y-32634642D01*
X228157142Y-32706071D01*
X228371428Y-32706071D01*
X228514285Y-32634642D01*
X228585714Y-32563214D01*
X231014285Y-32634642D02*
X230871428Y-32706071D01*
X230585714Y-32706071D01*
X230442857Y-32634642D01*
X230371428Y-32491785D01*
X230371428Y-31920357D01*
X230442857Y-31777500D01*
X230585714Y-31706071D01*
X230871428Y-31706071D01*
X231014285Y-31777500D01*
X231085714Y-31920357D01*
X231085714Y-32063214D01*
X230371428Y-32206071D01*
X231728571Y-31706071D02*
X231728571Y-32706071D01*
X231728571Y-31848928D02*
X231800000Y-31777500D01*
X231942857Y-31706071D01*
X232157142Y-31706071D01*
X232300000Y-31777500D01*
X232371428Y-31920357D01*
X232371428Y-32706071D01*
X233085714Y-31706071D02*
X233085714Y-32991785D01*
X233014285Y-33134642D01*
X232871428Y-33206071D01*
X232800000Y-33206071D01*
X233085714Y-31206071D02*
X233014285Y-31277500D01*
X233085714Y-31348928D01*
X233157142Y-31277500D01*
X233085714Y-31206071D01*
X233085714Y-31348928D01*
X234014285Y-32706071D02*
X233871428Y-32634642D01*
X233800000Y-32563214D01*
X233728571Y-32420357D01*
X233728571Y-31991785D01*
X233800000Y-31848928D01*
X233871428Y-31777500D01*
X234014285Y-31706071D01*
X234228571Y-31706071D01*
X234371428Y-31777500D01*
X234442857Y-31848928D01*
X234514285Y-31991785D01*
X234514285Y-32420357D01*
X234442857Y-32563214D01*
X234371428Y-32634642D01*
X234228571Y-32706071D01*
X234014285Y-32706071D01*
X235014285Y-31706071D02*
X235371428Y-32706071D01*
X235728571Y-31706071D02*
X235371428Y-32706071D01*
X235228571Y-33063214D01*
X235157142Y-33134642D01*
X235014285Y-33206071D01*
X211907142Y-35121071D02*
X211192857Y-35121071D01*
X211192857Y-33621071D01*
X212621428Y-35121071D02*
X212478571Y-35049642D01*
X212407142Y-34906785D01*
X212407142Y-33621071D01*
X213835714Y-35121071D02*
X213835714Y-34335357D01*
X213764285Y-34192500D01*
X213621428Y-34121071D01*
X213335714Y-34121071D01*
X213192857Y-34192500D01*
X213835714Y-35049642D02*
X213692857Y-35121071D01*
X213335714Y-35121071D01*
X213192857Y-35049642D01*
X213121428Y-34906785D01*
X213121428Y-34763928D01*
X213192857Y-34621071D01*
X213335714Y-34549642D01*
X213692857Y-34549642D01*
X213835714Y-34478214D01*
X214549999Y-35121071D02*
X214549999Y-34121071D01*
X214549999Y-34263928D02*
X214621428Y-34192500D01*
X214764285Y-34121071D01*
X214978571Y-34121071D01*
X215121428Y-34192500D01*
X215192857Y-34335357D01*
X215192857Y-35121071D01*
X215192857Y-34335357D02*
X215264285Y-34192500D01*
X215407142Y-34121071D01*
X215621428Y-34121071D01*
X215764285Y-34192500D01*
X215835714Y-34335357D01*
X215835714Y-35121071D01*
X217192857Y-35121071D02*
X217192857Y-34335357D01*
X217121428Y-34192500D01*
X216978571Y-34121071D01*
X216692857Y-34121071D01*
X216549999Y-34192500D01*
X217192857Y-35049642D02*
X217049999Y-35121071D01*
X216692857Y-35121071D01*
X216549999Y-35049642D01*
X216478571Y-34906785D01*
X216478571Y-34763928D01*
X216549999Y-34621071D01*
X216692857Y-34549642D01*
X217049999Y-34549642D01*
X217192857Y-34478214D01*
X218835714Y-33621071D02*
X219692857Y-33621071D01*
X219264285Y-35121071D02*
X219264285Y-33621071D01*
X220835714Y-35121071D02*
X220835714Y-34335357D01*
X220764285Y-34192500D01*
X220621428Y-34121071D01*
X220335714Y-34121071D01*
X220192857Y-34192500D01*
X220835714Y-35049642D02*
X220692857Y-35121071D01*
X220335714Y-35121071D01*
X220192857Y-35049642D01*
X220121428Y-34906785D01*
X220121428Y-34763928D01*
X220192857Y-34621071D01*
X220335714Y-34549642D01*
X220692857Y-34549642D01*
X220835714Y-34478214D01*
X221549999Y-35121071D02*
X221549999Y-33621071D01*
X221907142Y-33621071D01*
X222121428Y-33692500D01*
X222264285Y-33835357D01*
X222335714Y-33978214D01*
X222407142Y-34263928D01*
X222407142Y-34478214D01*
X222335714Y-34763928D01*
X222264285Y-34906785D01*
X222121428Y-35049642D01*
X221907142Y-35121071D01*
X221549999Y-35121071D01*
X223692857Y-35121071D02*
X223692857Y-34335357D01*
X223621428Y-34192500D01*
X223478571Y-34121071D01*
X223192857Y-34121071D01*
X223049999Y-34192500D01*
X223692857Y-35049642D02*
X223549999Y-35121071D01*
X223192857Y-35121071D01*
X223049999Y-35049642D01*
X222978571Y-34906785D01*
X222978571Y-34763928D01*
X223049999Y-34621071D01*
X223192857Y-34549642D01*
X223549999Y-34549642D01*
X223692857Y-34478214D01*
X224407142Y-35121071D02*
X224407142Y-34121071D01*
X224407142Y-34263928D02*
X224478571Y-34192500D01*
X224621428Y-34121071D01*
X224835714Y-34121071D01*
X224978571Y-34192500D01*
X225049999Y-34335357D01*
X225049999Y-35121071D01*
X225049999Y-34335357D02*
X225121428Y-34192500D01*
X225264285Y-34121071D01*
X225478571Y-34121071D01*
X225621428Y-34192500D01*
X225692857Y-34335357D01*
X225692857Y-35121071D01*
X227049999Y-35121071D02*
X227049999Y-34335357D01*
X226978571Y-34192500D01*
X226835714Y-34121071D01*
X226549999Y-34121071D01*
X226407142Y-34192500D01*
X227049999Y-35049642D02*
X226907142Y-35121071D01*
X226549999Y-35121071D01*
X226407142Y-35049642D01*
X226335714Y-34906785D01*
X226335714Y-34763928D01*
X226407142Y-34621071D01*
X226549999Y-34549642D01*
X226907142Y-34549642D01*
X227049999Y-34478214D01*
X227835714Y-35049642D02*
X227835714Y-35121071D01*
X227764285Y-35263928D01*
X227692857Y-35335357D01*
X230335714Y-35121071D02*
X229621428Y-35121071D01*
X229621428Y-33621071D01*
X231049999Y-35121071D02*
X230907142Y-35049642D01*
X230835714Y-34978214D01*
X230764285Y-34835357D01*
X230764285Y-34406785D01*
X230835714Y-34263928D01*
X230907142Y-34192500D01*
X231049999Y-34121071D01*
X231264285Y-34121071D01*
X231407142Y-34192500D01*
X231478571Y-34263928D01*
X231549999Y-34406785D01*
X231549999Y-34835357D01*
X231478571Y-34978214D01*
X231407142Y-35049642D01*
X231264285Y-35121071D01*
X231049999Y-35121071D01*
X232049999Y-34121071D02*
X232407142Y-35121071D01*
X232764285Y-34121071D01*
X233907142Y-35049642D02*
X233764285Y-35121071D01*
X233478571Y-35121071D01*
X233335714Y-35049642D01*
X233264285Y-34906785D01*
X233264285Y-34335357D01*
X233335714Y-34192500D01*
X233478571Y-34121071D01*
X233764285Y-34121071D01*
X233907142Y-34192500D01*
X233978571Y-34335357D01*
X233978571Y-34478214D01*
X233264285Y-34621071D01*
X217085714Y-37107500D02*
X217800000Y-37107500D01*
X216942857Y-37536071D02*
X217442857Y-36036071D01*
X217942857Y-37536071D01*
X218657142Y-37536071D02*
X218514285Y-37464642D01*
X218442857Y-37321785D01*
X218442857Y-36036071D01*
X219085714Y-36536071D02*
X219371428Y-37536071D01*
X219657142Y-36821785D01*
X219942857Y-37536071D01*
X220228571Y-36536071D01*
X221442857Y-37536071D02*
X221442857Y-36750357D01*
X221371428Y-36607500D01*
X221228571Y-36536071D01*
X220942857Y-36536071D01*
X220800000Y-36607500D01*
X221442857Y-37464642D02*
X221300000Y-37536071D01*
X220942857Y-37536071D01*
X220800000Y-37464642D01*
X220728571Y-37321785D01*
X220728571Y-37178928D01*
X220800000Y-37036071D01*
X220942857Y-36964642D01*
X221300000Y-36964642D01*
X221442857Y-36893214D01*
X222014285Y-36536071D02*
X222371428Y-37536071D01*
X222728571Y-36536071D02*
X222371428Y-37536071D01*
X222228571Y-37893214D01*
X222157142Y-37964642D01*
X222014285Y-38036071D01*
X223228571Y-37464642D02*
X223371428Y-37536071D01*
X223657142Y-37536071D01*
X223800000Y-37464642D01*
X223871428Y-37321785D01*
X223871428Y-37250357D01*
X223800000Y-37107500D01*
X223657142Y-37036071D01*
X223442857Y-37036071D01*
X223300000Y-36964642D01*
X223228571Y-36821785D01*
X223228571Y-36750357D01*
X223300000Y-36607500D01*
X223442857Y-36536071D01*
X223657142Y-36536071D01*
X223800000Y-36607500D01*
X225657142Y-36964642D02*
X226800000Y-36964642D01*
X213728571Y-42366071D02*
X213728571Y-40866071D01*
X214085714Y-40866071D01*
X214299999Y-40937500D01*
X214442857Y-41080357D01*
X214514285Y-41223214D01*
X214585714Y-41508928D01*
X214585714Y-41723214D01*
X214514285Y-42008928D01*
X214442857Y-42151785D01*
X214299999Y-42294642D01*
X214085714Y-42366071D01*
X213728571Y-42366071D01*
X215871428Y-42366071D02*
X215871428Y-41580357D01*
X215799999Y-41437500D01*
X215657142Y-41366071D01*
X215371428Y-41366071D01*
X215228571Y-41437500D01*
X215871428Y-42294642D02*
X215728571Y-42366071D01*
X215371428Y-42366071D01*
X215228571Y-42294642D01*
X215157142Y-42151785D01*
X215157142Y-42008928D01*
X215228571Y-41866071D01*
X215371428Y-41794642D01*
X215728571Y-41794642D01*
X215871428Y-41723214D01*
X217228571Y-42366071D02*
X217228571Y-40866071D01*
X217228571Y-42294642D02*
X217085714Y-42366071D01*
X216799999Y-42366071D01*
X216657142Y-42294642D01*
X216585714Y-42223214D01*
X216514285Y-42080357D01*
X216514285Y-41651785D01*
X216585714Y-41508928D01*
X216657142Y-41437500D01*
X216799999Y-41366071D01*
X217085714Y-41366071D01*
X217228571Y-41437500D01*
X218014285Y-42294642D02*
X218014285Y-42366071D01*
X217942857Y-42508928D01*
X217871428Y-42580357D01*
X219585714Y-41366071D02*
X220157142Y-41366071D01*
X219799999Y-40866071D02*
X219799999Y-42151785D01*
X219871428Y-42294642D01*
X220014285Y-42366071D01*
X220157142Y-42366071D01*
X220657142Y-42366071D02*
X220657142Y-40866071D01*
X221299999Y-42366071D02*
X221299999Y-41580357D01*
X221228571Y-41437500D01*
X221085714Y-41366071D01*
X220871428Y-41366071D01*
X220728571Y-41437500D01*
X220657142Y-41508928D01*
X222585714Y-42294642D02*
X222442857Y-42366071D01*
X222157142Y-42366071D01*
X222014285Y-42294642D01*
X221942857Y-42151785D01*
X221942857Y-41580357D01*
X222014285Y-41437500D01*
X222157142Y-41366071D01*
X222442857Y-41366071D01*
X222585714Y-41437500D01*
X222657142Y-41580357D01*
X222657142Y-41723214D01*
X221942857Y-41866071D01*
X224442857Y-42366071D02*
X224442857Y-40866071D01*
X224442857Y-41437500D02*
X224585714Y-41366071D01*
X224871428Y-41366071D01*
X225014285Y-41437500D01*
X225085714Y-41508928D01*
X225157142Y-41651785D01*
X225157142Y-42080357D01*
X225085714Y-42223214D01*
X225014285Y-42294642D01*
X224871428Y-42366071D01*
X224585714Y-42366071D01*
X224442857Y-42294642D01*
X226371428Y-42294642D02*
X226228571Y-42366071D01*
X225942857Y-42366071D01*
X225799999Y-42294642D01*
X225728571Y-42151785D01*
X225728571Y-41580357D01*
X225799999Y-41437500D01*
X225942857Y-41366071D01*
X226228571Y-41366071D01*
X226371428Y-41437500D01*
X226442857Y-41580357D01*
X226442857Y-41723214D01*
X225728571Y-41866071D01*
X227014285Y-42294642D02*
X227157142Y-42366071D01*
X227442857Y-42366071D01*
X227585714Y-42294642D01*
X227657142Y-42151785D01*
X227657142Y-42080357D01*
X227585714Y-41937500D01*
X227442857Y-41866071D01*
X227228571Y-41866071D01*
X227085714Y-41794642D01*
X227014285Y-41651785D01*
X227014285Y-41580357D01*
X227085714Y-41437500D01*
X227228571Y-41366071D01*
X227442857Y-41366071D01*
X227585714Y-41437500D01*
X228085714Y-41366071D02*
X228657142Y-41366071D01*
X228299999Y-40866071D02*
X228299999Y-42151785D01*
X228371428Y-42294642D01*
X228514285Y-42366071D01*
X228657142Y-42366071D01*
X230942857Y-42366071D02*
X230942857Y-40866071D01*
X230942857Y-42294642D02*
X230799999Y-42366071D01*
X230514285Y-42366071D01*
X230371428Y-42294642D01*
X230299999Y-42223214D01*
X230228571Y-42080357D01*
X230228571Y-41651785D01*
X230299999Y-41508928D01*
X230371428Y-41437500D01*
X230514285Y-41366071D01*
X230799999Y-41366071D01*
X230942857Y-41437500D01*
X232299999Y-42366071D02*
X232299999Y-41580357D01*
X232228571Y-41437500D01*
X232085714Y-41366071D01*
X231799999Y-41366071D01*
X231657142Y-41437500D01*
X232299999Y-42294642D02*
X232157142Y-42366071D01*
X231799999Y-42366071D01*
X231657142Y-42294642D01*
X231585714Y-42151785D01*
X231585714Y-42008928D01*
X231657142Y-41866071D01*
X231799999Y-41794642D01*
X232157142Y-41794642D01*
X232299999Y-41723214D01*
X233657142Y-42366071D02*
X233657142Y-40866071D01*
X233657142Y-42294642D02*
X233514285Y-42366071D01*
X233228571Y-42366071D01*
X233085714Y-42294642D01*
X233014285Y-42223214D01*
X232942857Y-42080357D01*
X232942857Y-41651785D01*
X233014285Y-41508928D01*
X233085714Y-41437500D01*
X233228571Y-41366071D01*
X233514285Y-41366071D01*
X233657142Y-41437500D01*
D11*
X201564285Y-41125000D02*
X202100000Y-41125000D01*
X202207142Y-41160714D01*
X202278571Y-41232142D01*
X202314285Y-41339285D01*
X202314285Y-41410714D01*
X201564285Y-40875000D02*
X201564285Y-40446428D01*
X202314285Y-40660714D02*
X201564285Y-40660714D01*
X202100000Y-40232142D02*
X202100000Y-39875000D01*
X202314285Y-40303571D02*
X201564285Y-40053571D01*
X202314285Y-39803571D01*
X201600000Y-39160714D02*
X201564285Y-39232142D01*
X201564285Y-39339285D01*
X201600000Y-39446428D01*
X201671428Y-39517857D01*
X201742857Y-39553571D01*
X201885714Y-39589285D01*
X201992857Y-39589285D01*
X202135714Y-39553571D01*
X202207142Y-39517857D01*
X202278571Y-39446428D01*
X202314285Y-39339285D01*
X202314285Y-39267857D01*
X202278571Y-39160714D01*
X202242857Y-39125000D01*
X201992857Y-39125000D01*
X201992857Y-39267857D01*
D10*
X194128571Y-50107142D02*
X195271428Y-50107142D01*
D11*
%TO.C,C2*%
X195675000Y-30567857D02*
X195639285Y-30603571D01*
X195532142Y-30639285D01*
X195460714Y-30639285D01*
X195353571Y-30603571D01*
X195282142Y-30532142D01*
X195246428Y-30460714D01*
X195210714Y-30317857D01*
X195210714Y-30210714D01*
X195246428Y-30067857D01*
X195282142Y-29996428D01*
X195353571Y-29925000D01*
X195460714Y-29889285D01*
X195532142Y-29889285D01*
X195639285Y-29925000D01*
X195675000Y-29960714D01*
X195960714Y-29960714D02*
X195996428Y-29925000D01*
X196067857Y-29889285D01*
X196246428Y-29889285D01*
X196317857Y-29925000D01*
X196353571Y-29960714D01*
X196389285Y-30032142D01*
X196389285Y-30103571D01*
X196353571Y-30210714D01*
X195925000Y-30639285D01*
X196389285Y-30639285D01*
%TO.C,C3*%
X190875000Y-28667857D02*
X190839285Y-28703571D01*
X190732142Y-28739285D01*
X190660714Y-28739285D01*
X190553571Y-28703571D01*
X190482142Y-28632142D01*
X190446428Y-28560714D01*
X190410714Y-28417857D01*
X190410714Y-28310714D01*
X190446428Y-28167857D01*
X190482142Y-28096428D01*
X190553571Y-28025000D01*
X190660714Y-27989285D01*
X190732142Y-27989285D01*
X190839285Y-28025000D01*
X190875000Y-28060714D01*
X191125000Y-27989285D02*
X191589285Y-27989285D01*
X191339285Y-28275000D01*
X191446428Y-28275000D01*
X191517857Y-28310714D01*
X191553571Y-28346428D01*
X191589285Y-28417857D01*
X191589285Y-28596428D01*
X191553571Y-28667857D01*
X191517857Y-28703571D01*
X191446428Y-28739285D01*
X191232142Y-28739285D01*
X191160714Y-28703571D01*
X191125000Y-28667857D01*
D12*
%TO.C,C4*%
X200657142Y-45766666D02*
X200704761Y-45814285D01*
X200752380Y-45957142D01*
X200752380Y-46052380D01*
X200704761Y-46195238D01*
X200609523Y-46290476D01*
X200514285Y-46338095D01*
X200323809Y-46385714D01*
X200180952Y-46385714D01*
X199990476Y-46338095D01*
X199895238Y-46290476D01*
X199800000Y-46195238D01*
X199752380Y-46052380D01*
X199752380Y-45957142D01*
X199800000Y-45814285D01*
X199847619Y-45766666D01*
X200085714Y-44909523D02*
X200752380Y-44909523D01*
X199704761Y-45147619D02*
X200419047Y-45385714D01*
X200419047Y-44766666D01*
%TO.C,C6*%
X193133333Y-45657142D02*
X193085714Y-45704761D01*
X192942857Y-45752380D01*
X192847619Y-45752380D01*
X192704761Y-45704761D01*
X192609523Y-45609523D01*
X192561904Y-45514285D01*
X192514285Y-45323809D01*
X192514285Y-45180952D01*
X192561904Y-44990476D01*
X192609523Y-44895238D01*
X192704761Y-44800000D01*
X192847619Y-44752380D01*
X192942857Y-44752380D01*
X193085714Y-44800000D01*
X193133333Y-44847619D01*
X193990476Y-44752380D02*
X193800000Y-44752380D01*
X193704761Y-44800000D01*
X193657142Y-44847619D01*
X193561904Y-44990476D01*
X193514285Y-45180952D01*
X193514285Y-45561904D01*
X193561904Y-45657142D01*
X193609523Y-45704761D01*
X193704761Y-45752380D01*
X193895238Y-45752380D01*
X193990476Y-45704761D01*
X194038095Y-45657142D01*
X194085714Y-45561904D01*
X194085714Y-45323809D01*
X194038095Y-45228571D01*
X193990476Y-45180952D01*
X193895238Y-45133333D01*
X193704761Y-45133333D01*
X193609523Y-45180952D01*
X193561904Y-45228571D01*
X193514285Y-45323809D01*
%TO.C,D1*%
X185361904Y-47452380D02*
X185361904Y-46452380D01*
X185600000Y-46452380D01*
X185742857Y-46500000D01*
X185838095Y-46595238D01*
X185885714Y-46690476D01*
X185933333Y-46880952D01*
X185933333Y-47023809D01*
X185885714Y-47214285D01*
X185838095Y-47309523D01*
X185742857Y-47404761D01*
X185600000Y-47452380D01*
X185361904Y-47452380D01*
X186885714Y-47452380D02*
X186314285Y-47452380D01*
X186600000Y-47452380D02*
X186600000Y-46452380D01*
X186504761Y-46595238D01*
X186409523Y-46690476D01*
X186314285Y-46738095D01*
X182285714Y-45252380D02*
X181714285Y-45252380D01*
X182000000Y-45252380D02*
X182000000Y-44252380D01*
X181904761Y-44395238D01*
X181809523Y-44490476D01*
X181714285Y-44538095D01*
%TO.C,MD1*%
X179752380Y-41164404D02*
X178752380Y-41164404D01*
X179466666Y-40831071D01*
X178752380Y-40497738D01*
X179752380Y-40497738D01*
X179752380Y-40021547D02*
X178752380Y-40021547D01*
X178752380Y-39783452D01*
X178800000Y-39640595D01*
X178895238Y-39545357D01*
X178990476Y-39497738D01*
X179180952Y-39450119D01*
X179323809Y-39450119D01*
X179514285Y-39497738D01*
X179609523Y-39545357D01*
X179704761Y-39640595D01*
X179752380Y-39783452D01*
X179752380Y-40021547D01*
X179752380Y-38497738D02*
X179752380Y-39069166D01*
X179752380Y-38783452D02*
X178752380Y-38783452D01*
X178895238Y-38878690D01*
X178990476Y-38973928D01*
X179038095Y-39069166D01*
%TO.C,R1*%
X185633333Y-49552380D02*
X185300000Y-49076190D01*
X185061904Y-49552380D02*
X185061904Y-48552380D01*
X185442857Y-48552380D01*
X185538095Y-48600000D01*
X185585714Y-48647619D01*
X185633333Y-48742857D01*
X185633333Y-48885714D01*
X185585714Y-48980952D01*
X185538095Y-49028571D01*
X185442857Y-49076190D01*
X185061904Y-49076190D01*
X186585714Y-49552380D02*
X186014285Y-49552380D01*
X186300000Y-49552380D02*
X186300000Y-48552380D01*
X186204761Y-48695238D01*
X186109523Y-48790476D01*
X186014285Y-48838095D01*
D11*
%TO.C,R2*%
X180739285Y-46925000D02*
X180382142Y-47175000D01*
X180739285Y-47353571D02*
X179989285Y-47353571D01*
X179989285Y-47067857D01*
X180025000Y-46996428D01*
X180060714Y-46960714D01*
X180132142Y-46925000D01*
X180239285Y-46925000D01*
X180310714Y-46960714D01*
X180346428Y-46996428D01*
X180382142Y-47067857D01*
X180382142Y-47353571D01*
X180060714Y-46639285D02*
X180025000Y-46603571D01*
X179989285Y-46532142D01*
X179989285Y-46353571D01*
X180025000Y-46282142D01*
X180060714Y-46246428D01*
X180132142Y-46210714D01*
X180203571Y-46210714D01*
X180310714Y-46246428D01*
X180739285Y-46675000D01*
X180739285Y-46210714D01*
%TO.C,R3*%
X192575000Y-28839285D02*
X192325000Y-28482142D01*
X192146428Y-28839285D02*
X192146428Y-28089285D01*
X192432142Y-28089285D01*
X192503571Y-28125000D01*
X192539285Y-28160714D01*
X192575000Y-28232142D01*
X192575000Y-28339285D01*
X192539285Y-28410714D01*
X192503571Y-28446428D01*
X192432142Y-28482142D01*
X192146428Y-28482142D01*
X192825000Y-28089285D02*
X193289285Y-28089285D01*
X193039285Y-28375000D01*
X193146428Y-28375000D01*
X193217857Y-28410714D01*
X193253571Y-28446428D01*
X193289285Y-28517857D01*
X193289285Y-28696428D01*
X193253571Y-28767857D01*
X193217857Y-28803571D01*
X193146428Y-28839285D01*
X192932142Y-28839285D01*
X192860714Y-28803571D01*
X192825000Y-28767857D01*
%TO.C,R4*%
X187475000Y-28739285D02*
X187225000Y-28382142D01*
X187046428Y-28739285D02*
X187046428Y-27989285D01*
X187332142Y-27989285D01*
X187403571Y-28025000D01*
X187439285Y-28060714D01*
X187475000Y-28132142D01*
X187475000Y-28239285D01*
X187439285Y-28310714D01*
X187403571Y-28346428D01*
X187332142Y-28382142D01*
X187046428Y-28382142D01*
X188117857Y-28239285D02*
X188117857Y-28739285D01*
X187939285Y-27953571D02*
X187760714Y-28489285D01*
X188225000Y-28489285D01*
%TO.C,R6*%
X182039285Y-31625000D02*
X181682142Y-31875000D01*
X182039285Y-32053571D02*
X181289285Y-32053571D01*
X181289285Y-31767857D01*
X181325000Y-31696428D01*
X181360714Y-31660714D01*
X181432142Y-31625000D01*
X181539285Y-31625000D01*
X181610714Y-31660714D01*
X181646428Y-31696428D01*
X181682142Y-31767857D01*
X181682142Y-32053571D01*
X181289285Y-30982142D02*
X181289285Y-31125000D01*
X181325000Y-31196428D01*
X181360714Y-31232142D01*
X181467857Y-31303571D01*
X181610714Y-31339285D01*
X181896428Y-31339285D01*
X181967857Y-31303571D01*
X182003571Y-31267857D01*
X182039285Y-31196428D01*
X182039285Y-31053571D01*
X182003571Y-30982142D01*
X181967857Y-30946428D01*
X181896428Y-30910714D01*
X181717857Y-30910714D01*
X181646428Y-30946428D01*
X181610714Y-30982142D01*
X181575000Y-31053571D01*
X181575000Y-31196428D01*
X181610714Y-31267857D01*
X181646428Y-31303571D01*
X181717857Y-31339285D01*
D12*
%TO.C,R7*%
X184833333Y-29852380D02*
X184500000Y-29376190D01*
X184261904Y-29852380D02*
X184261904Y-28852380D01*
X184642857Y-28852380D01*
X184738095Y-28900000D01*
X184785714Y-28947619D01*
X184833333Y-29042857D01*
X184833333Y-29185714D01*
X184785714Y-29280952D01*
X184738095Y-29328571D01*
X184642857Y-29376190D01*
X184261904Y-29376190D01*
X185166666Y-28852380D02*
X185833333Y-28852380D01*
X185404761Y-29852380D01*
D11*
%TO.C,R8*%
X180575000Y-33039285D02*
X180325000Y-32682142D01*
X180146428Y-33039285D02*
X180146428Y-32289285D01*
X180432142Y-32289285D01*
X180503571Y-32325000D01*
X180539285Y-32360714D01*
X180575000Y-32432142D01*
X180575000Y-32539285D01*
X180539285Y-32610714D01*
X180503571Y-32646428D01*
X180432142Y-32682142D01*
X180146428Y-32682142D01*
X181003571Y-32610714D02*
X180932142Y-32575000D01*
X180896428Y-32539285D01*
X180860714Y-32467857D01*
X180860714Y-32432142D01*
X180896428Y-32360714D01*
X180932142Y-32325000D01*
X181003571Y-32289285D01*
X181146428Y-32289285D01*
X181217857Y-32325000D01*
X181253571Y-32360714D01*
X181289285Y-32432142D01*
X181289285Y-32467857D01*
X181253571Y-32539285D01*
X181217857Y-32575000D01*
X181146428Y-32610714D01*
X181003571Y-32610714D01*
X180932142Y-32646428D01*
X180896428Y-32682142D01*
X180860714Y-32753571D01*
X180860714Y-32896428D01*
X180896428Y-32967857D01*
X180932142Y-33003571D01*
X181003571Y-33039285D01*
X181146428Y-33039285D01*
X181217857Y-33003571D01*
X181253571Y-32967857D01*
X181289285Y-32896428D01*
X181289285Y-32753571D01*
X181253571Y-32682142D01*
X181217857Y-32646428D01*
X181146428Y-32610714D01*
%TO.C,R9*%
X179039285Y-35725000D02*
X178682142Y-35975000D01*
X179039285Y-36153571D02*
X178289285Y-36153571D01*
X178289285Y-35867857D01*
X178325000Y-35796428D01*
X178360714Y-35760714D01*
X178432142Y-35725000D01*
X178539285Y-35725000D01*
X178610714Y-35760714D01*
X178646428Y-35796428D01*
X178682142Y-35867857D01*
X178682142Y-36153571D01*
X179039285Y-35367857D02*
X179039285Y-35225000D01*
X179003571Y-35153571D01*
X178967857Y-35117857D01*
X178860714Y-35046428D01*
X178717857Y-35010714D01*
X178432142Y-35010714D01*
X178360714Y-35046428D01*
X178325000Y-35082142D01*
X178289285Y-35153571D01*
X178289285Y-35296428D01*
X178325000Y-35367857D01*
X178360714Y-35403571D01*
X178432142Y-35439285D01*
X178610714Y-35439285D01*
X178682142Y-35403571D01*
X178717857Y-35367857D01*
X178753571Y-35296428D01*
X178753571Y-35153571D01*
X178717857Y-35082142D01*
X178682142Y-35046428D01*
X178610714Y-35010714D01*
D12*
%TO.C,U1*%
X188438095Y-32752380D02*
X188438095Y-33561904D01*
X188485714Y-33657142D01*
X188533333Y-33704761D01*
X188628571Y-33752380D01*
X188819047Y-33752380D01*
X188914285Y-33704761D01*
X188961904Y-33657142D01*
X189009523Y-33561904D01*
X189009523Y-32752380D01*
X190009523Y-33752380D02*
X189438095Y-33752380D01*
X189723809Y-33752380D02*
X189723809Y-32752380D01*
X189628571Y-32895238D01*
X189533333Y-32990476D01*
X189438095Y-33038095D01*
%TO.C,U2*%
X193038095Y-46752380D02*
X193038095Y-47561904D01*
X193085714Y-47657142D01*
X193133333Y-47704761D01*
X193228571Y-47752380D01*
X193419047Y-47752380D01*
X193514285Y-47704761D01*
X193561904Y-47657142D01*
X193609523Y-47561904D01*
X193609523Y-46752380D01*
X194038095Y-46847619D02*
X194085714Y-46800000D01*
X194180952Y-46752380D01*
X194419047Y-46752380D01*
X194514285Y-46800000D01*
X194561904Y-46847619D01*
X194609523Y-46942857D01*
X194609523Y-47038095D01*
X194561904Y-47180952D01*
X193990476Y-47752380D01*
X194609523Y-47752380D01*
%TO.C,SW1*%
X196266666Y-34704761D02*
X196409523Y-34752380D01*
X196647619Y-34752380D01*
X196742857Y-34704761D01*
X196790476Y-34657142D01*
X196838095Y-34561904D01*
X196838095Y-34466666D01*
X196790476Y-34371428D01*
X196742857Y-34323809D01*
X196647619Y-34276190D01*
X196457142Y-34228571D01*
X196361904Y-34180952D01*
X196314285Y-34133333D01*
X196266666Y-34038095D01*
X196266666Y-33942857D01*
X196314285Y-33847619D01*
X196361904Y-33800000D01*
X196457142Y-33752380D01*
X196695238Y-33752380D01*
X196838095Y-33800000D01*
X197171428Y-33752380D02*
X197409523Y-34752380D01*
X197600000Y-34038095D01*
X197790476Y-34752380D01*
X198028571Y-33752380D01*
X198933333Y-34752380D02*
X198361904Y-34752380D01*
X198647619Y-34752380D02*
X198647619Y-33752380D01*
X198552380Y-33895238D01*
X198457142Y-33990476D01*
X198361904Y-34038095D01*
%TO.C,MK1*%
X187690476Y-35752380D02*
X187690476Y-34752380D01*
X188023809Y-35466666D01*
X188357142Y-34752380D01*
X188357142Y-35752380D01*
X188833333Y-35752380D02*
X188833333Y-34752380D01*
X189404761Y-35752380D02*
X188976190Y-35180952D01*
X189404761Y-34752380D02*
X188833333Y-35323809D01*
X190357142Y-35752380D02*
X189785714Y-35752380D01*
X190071428Y-35752380D02*
X190071428Y-34752380D01*
X189976190Y-34895238D01*
X189880952Y-34990476D01*
X189785714Y-35038095D01*
D11*
%TO.C,C1*%
X191059420Y-50390000D02*
X191340580Y-50390000D01*
X191059420Y-51410000D02*
X191340580Y-51410000D01*
%TO.C,C2*%
X196540580Y-32010000D02*
X196259420Y-32010000D01*
X196540580Y-30990000D02*
X196259420Y-30990000D01*
%TO.C,C3*%
X190859420Y-29090000D02*
X191140580Y-29090000D01*
X190859420Y-30110000D02*
X191140580Y-30110000D01*
%TO.C,C4*%
X198090000Y-46659420D02*
X198090000Y-46940580D01*
X199110000Y-46659420D02*
X199110000Y-46940580D01*
%TO.C,C5*%
X192359420Y-37310000D02*
X192640580Y-37310000D01*
X192359420Y-36290000D02*
X192640580Y-36290000D01*
%TO.C,C6*%
X192640580Y-43090000D02*
X192359420Y-43090000D01*
X192640580Y-44110000D02*
X192359420Y-44110000D01*
%TO.C,C7*%
X184040580Y-35090000D02*
X183759420Y-35090000D01*
X184040580Y-36110000D02*
X183759420Y-36110000D01*
%TO.C,C8*%
X193390000Y-34140580D02*
X193390000Y-33859420D01*
X194410000Y-34140580D02*
X194410000Y-33859420D01*
%TO.C,D1*%
X189750000Y-49850000D02*
X189750000Y-48700000D01*
X182450000Y-49850000D02*
X189750000Y-49850000D01*
X182450000Y-44350000D02*
X189750000Y-44350000D01*
%TO.C,J1*%
X197130000Y-41570000D02*
X196495000Y-41570000D01*
X196495000Y-41570000D02*
X196495000Y-40935000D01*
D12*
%TO.C,MD1*%
X180725000Y-43200000D02*
X178100000Y-43200000D01*
X178100000Y-43200000D02*
X178100000Y-36800000D01*
X180725000Y-36800000D02*
X178100000Y-36800000D01*
D13*
X181425000Y-43800000D02*
G75*
G03*
X181425000Y-43800000I-125000J0D01*
G01*
D11*
%TO.C,Q1*%
X187320000Y-41640000D02*
X187320000Y-43800000D01*
X190480000Y-41640000D02*
X189550000Y-41640000D01*
X187320000Y-41640000D02*
X188250000Y-41640000D01*
X190480000Y-41640000D02*
X190480000Y-43100000D01*
%TO.C,R1*%
X185762742Y-50277500D02*
X186237258Y-50277500D01*
X185762742Y-51322500D02*
X186237258Y-51322500D01*
%TO.C,R2*%
X182122500Y-46762742D02*
X182122500Y-47237258D01*
X181077500Y-46762742D02*
X181077500Y-47237258D01*
%TO.C,R3*%
X194422500Y-30262742D02*
X194422500Y-30737258D01*
X193377500Y-30262742D02*
X193377500Y-30737258D01*
%TO.C,R4*%
X187937258Y-29077500D02*
X187462742Y-29077500D01*
X187937258Y-30122500D02*
X187462742Y-30122500D01*
%TO.C,R5*%
X184137258Y-33377500D02*
X183662742Y-33377500D01*
X184137258Y-34422500D02*
X183662742Y-34422500D01*
%TO.C,R6*%
X183422500Y-31837258D02*
X183422500Y-31362742D01*
X182377500Y-31837258D02*
X182377500Y-31362742D01*
%TO.C,R7*%
X185122500Y-31837258D02*
X185122500Y-31362742D01*
X184077500Y-31837258D02*
X184077500Y-31362742D01*
%TO.C,R8*%
X180562742Y-33377500D02*
X181037258Y-33377500D01*
X180562742Y-34422500D02*
X181037258Y-34422500D01*
%TO.C,R9*%
X180362742Y-35077500D02*
X180837258Y-35077500D01*
X180362742Y-36122500D02*
X180837258Y-36122500D01*
%TO.C,U1*%
X189200000Y-30640000D02*
X185750000Y-30640000D01*
X189200000Y-30640000D02*
X191150000Y-30640000D01*
X189200000Y-35760000D02*
X187250000Y-35760000D01*
X189200000Y-35760000D02*
X191150000Y-35760000D01*
%TO.C,U2*%
X193800000Y-49760000D02*
X195750000Y-49760000D01*
X193800000Y-44640000D02*
X190350000Y-44640000D01*
X193800000Y-49760000D02*
X191850000Y-49760000D01*
X193800000Y-44640000D02*
X195750000Y-44640000D01*
%TO.C,Y1*%
X191925000Y-40775000D02*
X191925000Y-39425000D01*
X193675000Y-40775000D02*
X193675000Y-39425000D01*
%TO.C,J2*%
X212540000Y-44064000D02*
X212540000Y-35936000D01*
X207460000Y-44064000D02*
X207460000Y-35936000D01*
X207460000Y-35936000D02*
X212540000Y-35936000D01*
X207460000Y-44064000D02*
X212540000Y-44064000D01*
%TO.C,SW1*%
X199570000Y-35870000D02*
X195430000Y-35870000D01*
X199570000Y-35570000D02*
X199570000Y-35870000D01*
X195430000Y-33030000D02*
X195430000Y-32730000D01*
X195430000Y-32730000D02*
X199570000Y-32730000D01*
X199570000Y-32730000D02*
X199570000Y-33030000D01*
X195430000Y-35870000D02*
X195430000Y-35570000D01*
%TO.C,TP4*%
X194400000Y-51100000D02*
G75*
G03*
X194400000Y-51100000I-700000J0D01*
G01*
%TO.C,TP3*%
X189300000Y-51100000D02*
G75*
G03*
X189300000Y-51100000I-700000J0D01*
G01*
%TO.C,MK1*%
X191100000Y-38300000D02*
G75*
G03*
X191100000Y-38300000I-2100000J0D01*
G01*
%TD*%
M02*
