%TF.GenerationSoftware,KiCad,Pcbnew,(6.0.0-rc1-314-g10be483430)*%
%TF.CreationDate,2021-12-09T18:24:32+11:00*%
%TF.ProjectId,project_llama,70726f6a-6563-4745-9f6c-6c616d612e6b,rev?*%
%TF.SameCoordinates,Original*%
%TF.FileFunction,Profile,NP*%
%FSLAX46Y46*%
G04 Gerber Fmt 4.6, Leading zero omitted, Abs format (unit mm)*
G04 Created by KiCad (PCBNEW (6.0.0-rc1-314-g10be483430)) date 2021-12-09 18:24:32*
%MOMM*%
%LPD*%
G01*
G04 APERTURE LIST*
%TA.AperFunction,Profile*%
%ADD10C,0.050000*%
%TD*%
G04 APERTURE END LIST*
D10*
X204391548Y-37758453D02*
G75*
G03*
X204391548Y-37758453I-291548J0D01*
G01*
X203091548Y-38850000D02*
G75*
G03*
X203091548Y-38850000I-291548J0D01*
G01*
X204241548Y-38850000D02*
G75*
G03*
X204241548Y-38850000I-291548J0D01*
G01*
X203091548Y-39991547D02*
G75*
G03*
X203091548Y-39991547I-291548J0D01*
G01*
X204241548Y-39991547D02*
G75*
G03*
X204241548Y-39991547I-291548J0D01*
G01*
X203091548Y-41241547D02*
G75*
G03*
X203091548Y-41241547I-291548J0D01*
G01*
X204233095Y-41250000D02*
G75*
G03*
X204233095Y-41250000I-291548J0D01*
G01*
X204391548Y-42191547D02*
G75*
G03*
X204391548Y-42191547I-291548J0D01*
G01*
X202941548Y-42191547D02*
G75*
G03*
X202941548Y-42191547I-291548J0D01*
G01*
X224450000Y-27550000D02*
G75*
G03*
X224450000Y-27550000I-1500000J0D01*
G01*
X235000000Y-37900000D02*
G75*
G03*
X235000000Y-37900000I-1500000J0D01*
G01*
X202941548Y-37758453D02*
G75*
G03*
X202941548Y-37758453I-291548J0D01*
G01*
X202187542Y-37249992D02*
X204417349Y-37250074D01*
X202209688Y-42749932D02*
X204417679Y-42750340D01*
X233900000Y-45350000D02*
G75*
G03*
X233900000Y-45350000I-1500000J0D01*
G01*
X202187542Y-37249992D02*
G75*
G03*
X177099951Y-40049999I-12387542J-2800008D01*
G01*
X204417680Y-42750339D02*
G75*
G03*
X239199799Y-40000000I17282320J2750339D01*
G01*
X177100000Y-40050000D02*
G75*
G03*
X202209688Y-42749932I12700000J0D01*
G01*
X219600000Y-51550000D02*
G75*
G03*
X219600000Y-51550000I-1500000J0D01*
G01*
X239199798Y-40000000D02*
G75*
G03*
X204417349Y-37250074I-17499930J0D01*
G01*
M02*
