%TF.GenerationSoftware,KiCad,Pcbnew,(6.0.0-rc1-314-g10be483430)*%
%TF.CreationDate,2021-12-09T18:24:32+11:00*%
%TF.ProjectId,project_llama,70726f6a-6563-4745-9f6c-6c616d612e6b,rev?*%
%TF.SameCoordinates,Original*%
%TF.FileFunction,Soldermask,Top*%
%TF.FilePolarity,Negative*%
%FSLAX46Y46*%
G04 Gerber Fmt 4.6, Leading zero omitted, Abs format (unit mm)*
G04 Created by KiCad (PCBNEW (6.0.0-rc1-314-g10be483430)) date 2021-12-09 18:24:32*
%MOMM*%
%LPD*%
G01*
G04 APERTURE LIST*
G04 Aperture macros list*
%AMRoundRect*
0 Rectangle with rounded corners*
0 $1 Rounding radius*
0 $2 $3 $4 $5 $6 $7 $8 $9 X,Y pos of 4 corners*
0 Add a 4 corners polygon primitive as box body*
4,1,4,$2,$3,$4,$5,$6,$7,$8,$9,$2,$3,0*
0 Add four circle primitives for the rounded corners*
1,1,$1+$1,$2,$3*
1,1,$1+$1,$4,$5*
1,1,$1+$1,$6,$7*
1,1,$1+$1,$8,$9*
0 Add four rect primitives between the rounded corners*
20,1,$1+$1,$2,$3,$4,$5,0*
20,1,$1+$1,$4,$5,$6,$7,0*
20,1,$1+$1,$6,$7,$8,$9,0*
20,1,$1+$1,$8,$9,$2,$3,0*%
%AMFreePoly0*
4,1,85,0.032093,0.369917,0.152523,0.368341,0.408529,0.326647,0.655562,0.247572,0.888192,0.132851,1.101311,-0.014995,1.290235,-0.192717,1.450816,-0.396412,1.579524,-0.621606,1.673533,-0.863350,1.730778,-1.116334,1.750000,-1.375000,1.747602,-1.466588,1.714868,-1.723894,1.644462,-1.973535,1.537930,-2.210028,1.397612,-2.428176,1.226591,-2.623188,1.028624,-2.790780,0.808060,-2.927269,
0.569744,-3.029658,0.318912,-3.095696,0.061074,-3.123934,-0.198106,-3.113751,-0.452933,-3.065370,-0.697811,-2.979855,-0.927359,-2.859084,-1.136534,-2.705710,-1.320742,-2.523103,-1.475935,-2.315274,-1.598705,-2.086789,-1.686353,-1.842667,-1.736956,-1.588271,-1.747874,-1.360970,-1.004741,-1.360970,-0.988331,-1.556393,-0.934276,-1.744906,-0.844634,-1.919330,-0.722821,-2.073020,-0.573475,-2.200123,
-0.402286,-2.295797,-0.215774,-2.356398,-0.021044,-2.379619,0.174488,-2.364573,0.363374,-2.311835,0.538420,-2.223414,0.692957,-2.102676,0.821099,-1.954222,0.917966,-1.783705,0.979868,-1.597621,1.004447,-1.403057,1.004839,-1.375000,0.985702,-1.179826,0.929020,-0.992086,0.836952,-0.818931,0.713004,-0.666956,0.561899,-0.541951,0.389391,-0.448676,0.202051,-0.390685,0.021074,-0.371662,
0.000000,-0.375000,-0.016747,-0.372348,-0.188288,-0.387959,-0.376419,-0.443330,-0.550213,-0.534187,-0.703049,-0.657070,-0.829106,-0.807299,-0.923583,-0.979152,-0.982881,-1.166082,-1.004741,-1.360970,-1.747874,-1.360970,-1.749400,-1.329190,-1.723414,-1.071116,-1.659566,-0.819717,-1.559261,-0.580517,-1.424702,-0.358770,-1.258845,-0.159348,-1.065333,0.013368,-0.848417,0.155584,-0.612863,0.264176,
-0.363845,0.336758,-0.106835,0.371736,-0.027193,0.370693,0.000000,0.375000,0.032093,0.369917,0.032093,0.369917,$1*%
G04 Aperture macros list end*
%ADD10RoundRect,0.225000X-0.225000X-0.250000X0.225000X-0.250000X0.225000X0.250000X-0.225000X0.250000X0*%
%ADD11RoundRect,0.225000X0.225000X0.250000X-0.225000X0.250000X-0.225000X-0.250000X0.225000X-0.250000X0*%
%ADD12RoundRect,0.225000X-0.250000X0.225000X-0.250000X-0.225000X0.250000X-0.225000X0.250000X0.225000X0*%
%ADD13RoundRect,0.225000X0.250000X-0.225000X0.250000X0.225000X-0.250000X0.225000X-0.250000X-0.225000X0*%
%ADD14R,1.500000X1.000000*%
%ADD15C,2.374900*%
%ADD16C,0.990600*%
%ADD17C,0.787400*%
%ADD18R,0.400000X0.550000*%
%ADD19R,0.800000X0.900000*%
%ADD20RoundRect,0.200000X-0.200000X-0.275000X0.200000X-0.275000X0.200000X0.275000X-0.200000X0.275000X0*%
%ADD21RoundRect,0.200000X-0.275000X0.200000X-0.275000X-0.200000X0.275000X-0.200000X0.275000X0.200000X0*%
%ADD22RoundRect,0.200000X0.200000X0.275000X-0.200000X0.275000X-0.200000X-0.275000X0.200000X-0.275000X0*%
%ADD23RoundRect,0.200000X0.275000X-0.200000X0.275000X0.200000X-0.275000X0.200000X-0.275000X-0.200000X0*%
%ADD24RoundRect,0.150000X-0.825000X-0.150000X0.825000X-0.150000X0.825000X0.150000X-0.825000X0.150000X0*%
%ADD25RoundRect,0.150000X-0.675000X-0.150000X0.675000X-0.150000X0.675000X0.150000X-0.675000X0.150000X0*%
%ADD26R,1.800000X1.000000*%
%ADD27C,0.700000*%
%ADD28O,1.000000X2.050000*%
%ADD29RoundRect,0.200000X-0.200000X-0.800000X0.200000X-0.800000X0.200000X0.800000X-0.200000X0.800000X0*%
%ADD30C,1.250000*%
%ADD31FreePoly0,0.000000*%
%ADD32C,1.000000*%
G04 APERTURE END LIST*
D10*
%TO.C,C1*%
X190425000Y-50900000D03*
X191975000Y-50900000D03*
%TD*%
D11*
%TO.C,C2*%
X197175000Y-31500000D03*
X195625000Y-31500000D03*
%TD*%
D10*
%TO.C,C3*%
X190225000Y-29600000D03*
X191775000Y-29600000D03*
%TD*%
D12*
%TO.C,C4*%
X198600000Y-46025000D03*
X198600000Y-47575000D03*
%TD*%
D10*
%TO.C,C5*%
X191725000Y-36800000D03*
X193275000Y-36800000D03*
%TD*%
D11*
%TO.C,C6*%
X193275000Y-43600000D03*
X191725000Y-43600000D03*
%TD*%
%TO.C,C7*%
X184675000Y-35600000D03*
X183125000Y-35600000D03*
%TD*%
D13*
%TO.C,C8*%
X193900000Y-34775000D03*
X193900000Y-33225000D03*
%TD*%
D14*
%TO.C,D1*%
X183650000Y-45500000D03*
X183650000Y-48700000D03*
X188550000Y-48700000D03*
X188550000Y-45500000D03*
%TD*%
D15*
%TO.C,J1*%
X195860000Y-37760000D03*
D16*
X200940000Y-41316000D03*
D15*
X195860000Y-42840000D03*
D16*
X200940000Y-39284000D03*
D15*
X199035000Y-42840000D03*
X199035000Y-37760000D03*
D16*
X195860000Y-40300000D03*
D17*
X197130000Y-40935000D03*
X197130000Y-39665000D03*
X198400000Y-40935000D03*
X198400000Y-39665000D03*
X199670000Y-40935000D03*
X199670000Y-39665000D03*
%TD*%
D18*
%TO.C,MD1*%
X181300000Y-42675000D03*
X182050000Y-42675000D03*
X182425000Y-41900000D03*
X182800000Y-42675000D03*
X183175000Y-41900000D03*
X183550000Y-42675000D03*
X183925000Y-41900000D03*
X184300000Y-42675000D03*
X185050000Y-42675000D03*
X186049999Y-42675000D03*
X185465000Y-41900000D03*
X186050000Y-41424999D03*
X185465000Y-40950000D03*
X186050000Y-40474999D03*
X185465000Y-40000000D03*
X186050000Y-39524999D03*
X185465000Y-39050000D03*
X186050000Y-38574999D03*
X185465000Y-38100000D03*
X186049999Y-37325000D03*
X185050000Y-37325000D03*
X184300000Y-37325000D03*
X183925000Y-38100000D03*
X183550000Y-37325000D03*
X183175000Y-38100000D03*
X182800000Y-37325000D03*
X182425000Y-38100000D03*
X182050000Y-37325000D03*
X181300000Y-37325000D03*
%TD*%
D19*
%TO.C,Q1*%
X187950000Y-43400000D03*
X189850000Y-43400000D03*
X188900000Y-41400000D03*
%TD*%
D20*
%TO.C,R1*%
X185175000Y-50800000D03*
X186825000Y-50800000D03*
%TD*%
D21*
%TO.C,R2*%
X181600000Y-46175000D03*
X181600000Y-47825000D03*
%TD*%
%TO.C,R3*%
X193900000Y-29675000D03*
X193900000Y-31325000D03*
%TD*%
D22*
%TO.C,R4*%
X188525000Y-29600000D03*
X186875000Y-29600000D03*
%TD*%
%TO.C,R5*%
X184725000Y-33900000D03*
X183075000Y-33900000D03*
%TD*%
D23*
%TO.C,R6*%
X182900000Y-32425000D03*
X182900000Y-30775000D03*
%TD*%
%TO.C,R7*%
X184600000Y-32425000D03*
X184600000Y-30775000D03*
%TD*%
D20*
%TO.C,R8*%
X179975000Y-33900000D03*
X181625000Y-33900000D03*
%TD*%
%TO.C,R9*%
X179775000Y-35600000D03*
X181425000Y-35600000D03*
%TD*%
D24*
%TO.C,U1*%
X186725000Y-31295000D03*
X186725000Y-32565000D03*
X186725000Y-33835000D03*
X186725000Y-35105000D03*
X191675000Y-35105000D03*
X191675000Y-33835000D03*
X191675000Y-32565000D03*
X191675000Y-31295000D03*
%TD*%
D25*
%TO.C,U2*%
X191175000Y-45295000D03*
X191175000Y-46565000D03*
X191175000Y-47835000D03*
X191175000Y-49105000D03*
X196425000Y-49105000D03*
X196425000Y-47835000D03*
X196425000Y-46565000D03*
X196425000Y-45295000D03*
%TD*%
D26*
%TO.C,Y1*%
X192800000Y-38850000D03*
X192800000Y-41350000D03*
%TD*%
D27*
%TO.C,J2*%
X209300000Y-43250000D03*
X209300000Y-42300000D03*
X209300000Y-41350000D03*
X209300000Y-40450000D03*
X209300000Y-39550000D03*
X209300000Y-37700000D03*
X209300000Y-36750000D03*
X210700000Y-43250000D03*
X210700000Y-42300000D03*
X210700000Y-38650000D03*
X210700000Y-39550000D03*
X210700000Y-40450000D03*
X210700000Y-37700000D03*
X210700000Y-36750000D03*
D28*
X211930000Y-38000000D03*
X211930000Y-42000000D03*
X208070000Y-38000000D03*
X208070000Y-42000000D03*
%TD*%
D29*
%TO.C,SW1*%
X195400000Y-34300000D03*
X199600000Y-34300000D03*
%TD*%
D30*
%TO.C,TP4*%
X193700000Y-51100000D03*
%TD*%
%TO.C,TP3*%
X188600000Y-51100000D03*
%TD*%
D31*
%TO.C,MK1*%
X189000000Y-36925000D03*
D32*
X189000000Y-38300000D03*
%TD*%
M02*
